<?xml version="1.0" encoding="UTF-8"?>
<svg width="32px" height="32px" viewBox="0 0 32 32" version="1.1" xmlns="http://www.w3.org/2000/svg" xmlns:xlink="http://www.w3.org/1999/xlink">
    <title>Icon / 32px / Chat</title>
    <g id="Icon-/-32px-/-Chat" stroke="none" stroke-width="1" fill="none" fill-rule="evenodd">
        <g id="ChatIcon">
            <rect id="Icon-BG-Copy-5" fill="#FFCF56" x="0" y="0" width="32" height="32" rx="10"></rect>
            <g id="Chat" transform="translate(7.000000, 7.000000)" stroke="#FFFFFF" stroke-width="1.5">
                <path d="M9,0.75 C6.72182541,0.75 4.65932541,1.6734127 3.16636906,3.16636906 C1.6734127,4.65932541 0.75,6.72182541 0.75,9 C0.75,11.2781746 1.6734127,13.3406746 3.16636906,14.8336309 C4.65932541,16.3265873 6.72182541,17.25 9,17.25 C10.3498462,17.25 11.6240629,16.9260808 12.7488559,16.3511973 L16.35,16.2 L16.3508336,12.7495674 C16.9259442,11.6246003 17.25,10.3501308 17.25,9 C17.25,6.72182541 16.3265873,4.65932541 14.8336309,3.16636906 C13.3406746,1.6734127 11.2781746,0.75 9,0.75 Z" id="Combined-Shape"></path>
                <rect id="Rectangle-6" x="6.75" y="7.95" width="3.9" height="1" rx="0.5"></rect>
                <rect id="Rectangle-6-Copy" x="6.75" y="10.95" width="5.1" height="1" rx="0.5"></rect>
            </g>
        </g>
    </g>
</svg>