<?xml version="1.0" encoding="UTF-8"?>
<svg width="32px" height="32px" viewBox="0 0 32 32" version="1.1" xmlns="http://www.w3.org/2000/svg" xmlns:xlink="http://www.w3.org/1999/xlink">
    <title>Icon / 32px / Cloud</title>
    <g id="Icon-/-32px-/-Cloud" stroke="none" stroke-width="1" fill="none" fill-rule="evenodd">
        <g id="CloudIcon">
            <rect id="Icon-BG-Copy-4" fill="#06B4FE" x="0" y="0" width="32" height="32" rx="10"></rect>
            <g id="Cloud" transform="translate(7.000000, 7.000000)">
                <rect id="Rectangle-3" fill="#DDDDDD" opacity="0" x="0" y="0" width="18" height="18"></rect>
                <path d="M9.15,3.15 C8.19500518,3.15 7.31436859,3.46859017 6.60897528,4.00557382 C5.88710758,4.55509867 5.34823981,5.33283409 5.10119081,6.23149557 C5.05397947,6.40323075 5.0181851,6.57661808 4.99353771,6.75062584 C4.81828501,6.74846997 4.6414035,6.75733361 4.46374873,6.77777448 C3.41257658,6.89872183 2.47982221,7.40824984 1.81191522,8.15843046 C1.15127842,8.90044535 0.75,9.87837603 0.75,10.95 C0.75,12.0866744 1.20153165,13.1178877 1.93501739,13.8742949 C2.66834689,14.630541 3.68344173,15.1122989 4.81101367,15.1499692 L14.3555649,15.1254028 C15.1693237,15.025894 15.8912594,14.6297045 16.4107032,14.0489087 C16.9327215,13.4652344 17.25,12.6946547 17.25,11.85 C17.25,10.9676478 16.903158,10.1679035 16.348436,9.52783962 C15.7376365,8.823071 14.8765563,8.30873933 13.9241968,8.07910441 C13.7192396,8.02968469 13.512036,7.99392852 13.3044249,7.97172191 C13.3343959,7.76896251 13.35,7.56130353 13.35,7.35 C13.35,6.19020203 12.879899,5.14020203 12.1198485,4.38015152 C11.359798,3.62010101 10.309798,3.15 9.15,3.15 Z" id="Combined-Shape" stroke="#FFFFFF" stroke-width="1.5"></path>
            </g>
        </g>
    </g>
</svg>