<?xml version="1.0" encoding="UTF-8"?>
<svg width="32px" height="32px" viewBox="0 0 32 32" version="1.1" xmlns="http://www.w3.org/2000/svg" xmlns:xlink="http://www.w3.org/1999/xlink">
    <title>Icon / 32px / Heart</title>
    <g id="Icon-/-32px-/-Heart" stroke="none" stroke-width="1" fill="none" fill-rule="evenodd">
        <g id="HeartIcon">
            <rect id="Icon-BG" fill="#7A69E6" x="0" y="0" width="32" height="32" rx="10"></rect>
            <g id="Heart" transform="translate(7.000000, 7.000000)">
                <rect id="Rectangle" fill="#DDDDDD" opacity="0" x="0" y="0" width="18" height="18"></rect>
                <path d="M8.3177643,2.97008511 C7.45285494,2.09076059 6.31953567,1.65 5.18565043,1.65 C4.05176519,1.65 2.91844593,2.09076059 2.05353657,2.97008511 C1.18382584,3.85429101 0.75,5.01344613 0.75,6.17207794 C0.75,7.33070975 1.18382584,8.48986486 2.05353657,9.37407077 L8.85245902,16.2863086 L15.6513815,9.37407077 C16.5210922,8.48986486 16.954918,7.33070975 16.954918,6.17207794 C16.954918,5.01344613 16.5210922,3.85429101 15.6513815,2.97008511 C14.7864721,2.09076059 13.6531528,1.65 12.5192676,1.65 C11.3853824,1.65 10.2520631,2.09076059 9.38715374,2.97008511 C9.18470455,3.17590844 9.00652348,3.39603846 8.85258192,3.62704023 C8.69858039,3.39626807 8.52031906,3.17601578 8.3177643,2.97008511 Z" id="Heart-" stroke="#FFFFFF" stroke-width="1.5"></path>
            </g>
        </g>
    </g>
</svg>