<?xml version="1.0" encoding="UTF-8"?>
<svg width="444px" height="588px" viewBox="0 0 444 588" version="1.1" xmlns="http://www.w3.org/2000/svg" xmlns:xlink="http://www.w3.org/1999/xlink">
    <title>hero-icons</title>
    <defs>
        <rect id="path-1" x="0" y="0" width="80" height="80" rx="25"></rect>
        <rect id="path-3" x="0" y="0" width="175" height="175" rx="25"></rect>
        <rect id="path-5" x="0" y="0" width="125" height="125" rx="25"></rect>
        <rect id="path-7" x="0" y="0" width="80" height="80" rx="25"></rect>
        <rect id="path-9" x="0" y="0" width="100" height="100" rx="25"></rect>
    </defs>
    <g id="Landing-Page" stroke="none" stroke-width="1" fill="none" fill-rule="evenodd">
        <g id="Home-Page" transform="translate(-831.000000, -94.000000)">
            <g id="hero">
                <g id="hero-icons" transform="translate(831.000000, 94.000000)">
                    <g id="ic_halfround_skill_react" transform="translate(53.000000, 508.000000)">
                        <mask id="mask-2" fill="white">
                            <use xlink:href="#path-1"></use>
                        </mask>
                        <use id="BG" fill="#34474F" fill-rule="nonzero" xlink:href="#path-1"></use>
                        <g id="download" mask="url(#mask-2)">
                            <g transform="translate(16.000000, 14.400000)">
                                <circle id="Oval" fill="#FFFFFF" fill-rule="nonzero" cx="24" cy="26.1818182" r="4.47272727"></circle>
                                <g id="Group" stroke-width="1" fill="none" fill-rule="evenodd">
                                    <ellipse id="Oval" stroke="#FFFFFF" cx="24" cy="26.1818182" rx="24" ry="9.16363636"></ellipse>
                                    <ellipse id="Oval" stroke="#FFFFFF" transform="translate(24.000000, 26.181818) rotate(60.000000) translate(-24.000000, -26.181818) " cx="24" cy="26.1818182" rx="24" ry="9.16363636"></ellipse>
                                    <ellipse id="Oval" stroke="#FFFFFF" transform="translate(24.000000, 26.181818) rotate(120.000000) translate(-24.000000, -26.181818) " cx="24" cy="26.1818182" rx="24" ry="9.16363636"></ellipse>
                                </g>
                            </g>
                        </g>
                    </g>
                    <g id="ic_halfround_skill_github" transform="translate(93.000000, 360.000000)">
                        <mask id="mask-4" fill="white">
                            <use xlink:href="#path-3"></use>
                        </mask>
                        <use id="BG" fill="#41B883" fill-rule="nonzero" xlink:href="#path-3"></use>
                        <path d="M88.0319655,37.5766871 C58.9856097,37.5766871 35.4294479,60.9864236 35.4294479,89.8658146 C35.4294479,112.967401 50.5016452,132.563787 71.4063663,139.477893 C74.0384299,139.959377 74.997599,138.344801 74.997599,136.958128 C74.997599,135.71911 74.9523857,132.428972 74.9265495,128.06673 C60.2935677,131.225263 57.2061409,121.056327 57.2061409,121.056327 C54.8130622,115.015312 51.3639286,113.407157 51.3639286,113.407157 C46.5874598,110.165166 51.7256355,110.229364 51.7256355,110.229364 C57.0059103,110.598502 59.7833026,115.618772 59.7833026,115.618772 C64.4758037,123.608191 72.0974848,121.300279 75.0944848,119.961754 C75.5724546,116.584949 76.932085,114.280247 78.4338146,112.973821 C66.7526194,111.654556 54.4707325,107.167128 54.4707325,87.1309873 C54.4707325,81.4238008 56.5214814,76.7534091 59.8866474,73.1005529 C59.3440871,71.7780777 57.5387821,66.459288 60.4033715,59.262712 C60.4033715,59.262712 64.8181334,57.8567797 74.868418,64.6232303 C79.0635721,63.4612497 83.5655312,62.8834693 88.0384246,62.861 C92.5080884,62.8834693 97.006818,63.4612497 101.208431,64.6232303 C111.252257,57.8567797 115.66056,59.262712 115.66056,59.262712 C118.531608,66.459288 116.726303,71.7780777 116.186972,73.1005529 C119.558597,76.7534091 121.593199,81.4238008 121.593199,87.1309873 C121.593199,107.218486 109.291934,111.638507 97.5752145,112.932093 C99.4612576,114.546668 101.143841,117.7373 101.143841,122.616334 C101.143841,129.604268 101.07925,135.244046 101.07925,136.958128 C101.07925,138.357641 102.028731,139.985056 104.696319,139.474683 C125.584893,132.544528 140.644172,112.960982 140.644172,89.8658146 C140.644172,60.9864236 117.08801,37.5766871 88.0319655,37.5766871" id="ico-platform-github" fill="#FFFFFF" mask="url(#mask-4)"></path>
                    </g>
                    <g id="ic_halfround_skill_swift" opacity="0.972586496" transform="translate(0.000000, 268.000000)">
                        <mask id="mask-6" fill="white">
                            <use xlink:href="#path-5"></use>
                        </mask>
                        <use id="BG" fill="#F05138" fill-rule="nonzero" xlink:href="#path-5"></use>
                        <path d="M93.7469726,77.1356634 C93.7446308,77.1326574 93.7424563,77.1304864 93.7399472,77.1276475 C93.8498444,76.7542388 93.9632543,76.3831681 94.0594353,76.0004075 C98.1826713,59.5996509 88.1194664,40.2094539 71.0904182,30 C78.5528899,40.0999029 81.8524823,52.3332117 78.9208866,63.0314703 C78.6594417,63.9856997 78.345139,64.9015196 77.9977167,65.7916216 C77.6206873,65.5442968 77.145637,65.2635723 76.5076645,64.9123745 C76.5076645,64.9123745 59.5682737,54.4704586 41.2087501,36.0012584 C40.7270089,35.5164618 50.998801,50.6587177 62.6561007,62.9546509 C57.1639169,59.8773694 41.8579297,48.7591096 32.1682416,39.9050156 C33.3587109,41.8871209 34.774662,43.7957469 36.3311208,45.6332315 C44.4228669,55.8784231 54.9755073,68.5193753 67.6180346,78.2261637 C58.7352629,83.6532812 46.1837312,84.0752865 33.6867298,78.2318416 C30.5957247,76.7856345 27.6898887,75.0406671 25,73.0580608 C30.2899528,81.5056804 38.4372329,88.7941634 48.3532391,93.0491184 C60.1784791,98.1227001 71.9378143,97.7786832 80.6961362,93.1322837 L80.6892781,93.1423036 C80.7292559,93.1170868 80.7801064,93.089532 80.8215897,93.0639813 C81.1812228,92.870931 81.5381796,92.6743737 81.8872747,92.4667946 C86.0953172,90.286128 94.4070249,88.0737318 98.8683161,96.7399525 C99.9609318,98.8608335 102.282657,87.6211658 93.7469726,77.1356634 Z" id="Path" fill="#FFFFFF" fill-rule="nonzero" mask="url(#mask-6)"></path>
                    </g>
                    <g id="drupal" transform="translate(143.000000, 62.000000)" fill-rule="nonzero">
                        <rect id="BG" fill="#1895E9" x="0" y="0" width="250" height="250" rx="25"></rect>
                        <g id="drupal-8-logo-isolated-CMYK-72" transform="translate(58.375000, 50.000000)" fill="#FFFFFF">
                            <g id="drupal-8-logo-isolated">
                                <path d="M62.5,93 C49.5237192,93 39,103.523719 39,116.5 C39,129.476281 49.5237192,140 62.5,140 C75.4762808,140 86,129.476281 86,116.5 C86,103.523719 75.4762808,93 62.5,93 Z" id="Path"></path>
                                <path d="M93.14186,87.9612049 C100.135511,95.326335 104.439296,105.312186 104.439296,116.337289 C104.439296,130.299407 97.5353073,142.589685 87,150 C106.501526,143.94523 122.64072,129.169785 129.858527,111.276586 C139.855861,86.5152898 130.530993,67.8991328 114.929772,51 C115.422914,53.1688727 115.691901,55.4732999 115.691901,57.7777271 C115.64707,72.1465084 106.142877,84.2108626 93.14186,87.9612049 Z" id="Path"></path>
                                <path d="M65,57.5 C65,67.7369727 73.2986369,76 83.4770756,76 C93.6555143,76 102,67.691067 102,57.5 C102,47.2630273 93.7013631,39 83.5229244,39 C73.3444857,39 65,47.2630273 65,57.5 Z" id="Path"></path>
                                <path d="M31.474187,143 C25.469448,135.894969 21.857575,126.721384 21.857575,116.693396 C21.857575,95.7830189 37.6143711,78.5600629 57.9763054,76.1767296 C54.4998776,71.1402516 52.4230506,65.0245283 52.4230506,58.4591195 C52.4230506,41.191195 66.464207,27.2509434 83.8011976,27.2509434 C85.2459468,27.2509434 86.6455476,27.3408805 88,27.5207547 C77.7513103,18.7069182 67.5026205,9.7581761 59.4210546,0 C63.5295602,42.8100629 20.2773805,27.2509434 4.24969394,66.7333333 C-6.45047993,93.1748428 3.21128044,125.866981 31.474187,143 Z" id="Path"></path>
                            </g>
                        </g>
                    </g>
                    <g id="ic_halfround_skill_css" transform="translate(344.000000, 276.000000)">
                        <mask id="mask-8" fill="white">
                            <use xlink:href="#path-7"></use>
                        </mask>
                        <use id="BG" fill="#1073BB" fill-rule="nonzero" xlink:href="#path-7"></use>
                        <g id="Group-4" mask="url(#mask-8)">
                            <g transform="translate(25.000000, 17.000000)">
                                <g id="Group-3" stroke-width="1" fill="none" fill-rule="evenodd" transform="translate(1.000000, 0.000000)">
                                    <path d="M6.63041346,5.59049279 L9.1005637,6.35621034 C8.93008173,7.07548558 8.6618774,7.67613942 8.29633774,8.15894591 C7.93060457,8.64194591 7.4764375,9.00632452 6.93422356,9.25188822 C6.39181611,9.49783894 5.7013738,9.62071755 4.86309014,9.62071755 C3.84600361,9.62071755 3.01526683,9.47345673 2.3706863,9.17990264 C1.72591226,8.88576803 1.16995913,8.36890385 0.701859375,7.62853606 C0.234146635,6.8887488 -3.46389584e-14,5.94171274 -3.46389584e-14,4.78800841 C-3.46389584e-14,3.24921995 0.409466346,2.06668269 1.22917308,1.23981611 C2.04829928,0.413143029 3.2080024,3.99680289e-15 4.70692788,3.99680289e-15 C5.88095072,3.99680289e-15 6.80360457,0.24130649 7.47469591,0.724112981 C8.14559375,1.20672596 8.64446154,1.94786779 8.97071875,2.94753846 L6.37053005,3.51007091 C6.28248317,3.22832091 6.19056611,3.02242668 6.09419832,2.89258173 C5.93435937,2.67333534 5.73930168,2.50440144 5.5082512,2.3867476 C5.27739423,2.26890024 5.01963942,2.21026683 4.73518029,2.21026683 C4.0894387,2.21026683 3.5942476,2.46666707 3.25038101,2.97985457 C2.99030409,3.360875 2.86026562,3.95843269 2.86026562,4.77388221 C2.86026562,5.78284135 3.02184615,6.4742512 3.34597476,6.84888582 C3.66952284,7.22352043 4.1236899,7.41045072 4.70886298,7.41045072 C5.27758774,7.41045072 5.7073726,7.2550625 5.99763702,6.94447957 C6.28809495,6.63370313 6.49921394,6.18224519 6.63041346,5.59049279" id="Path" fill="#FFFFFF" fill-rule="nonzero"></path>
                                    <path d="M9.88060096,6.40923197 L12.7406731,6.24049159 C12.7964038,6.6795649 12.909607,7.01336899 13.0800889,7.24248437 C13.3577752,7.61440986 13.7542764,7.80075962 14.2703666,7.80075962 C14.6552572,7.80075962 14.9513269,7.70342428 15.1591562,7.50933413 C15.3667921,7.31505048 15.4709002,7.08961178 15.4709002,6.83379207 C15.4709002,6.59151803 15.3789832,6.37420673 15.1945685,6.18205168 C15.0089928,5.98970312 14.5331526,5.80780409 13.766274,5.63751562 C12.5111707,5.35170192 11.6159952,4.9749387 11.0811346,4.5060649 C10.5406623,4.03738462 10.2707163,3.44060096 10.2707163,2.71610096 C10.2707163,2.2379387 10.4098498,1.78744832 10.687149,1.36366226 C10.9648353,0.939876202 11.3824291,0.606459135 11.9393498,0.363798077 C12.4966575,0.121717548 13.2612139,0.000580528846 14.2322452,0.000580528846 C15.4225228,0.000580528846 16.3300829,0.224858173 16.9549255,0.673800481 C17.580155,1.1229363 17.9520805,1.83756731 18.071476,2.81808053 L15.2112103,2.99069111 C15.1490937,2.53710457 15.0184748,2.20678365 14.8203209,2.0005024 C14.6219736,1.79364062 14.3477704,1.6905 13.9982921,1.6905 C13.7111238,1.6905 13.49478,1.76190505 13.3494543,1.90490865 C13.2037416,2.04810577 13.130982,2.22149038 13.130982,2.42583654 C13.130982,2.57503245 13.1648462,2.70971514 13.2325745,2.83007812 C13.2975937,2.95353726 13.5830204,3.06828846 14.0894351,3.17549279 C15.3410553,3.44795433 16.2377788,3.72273798 16.7794123,4.00139183 C17.3210457,4.27965865 17.7148377,4.62507332 17.9615625,5.03744231 C18.2079002,5.45000481 18.3309724,5.91133173 18.3309724,6.42161659 C18.3309724,7.02052885 18.1659087,7.57241827 17.8352007,8.0782524 C17.5048798,8.58408654 17.0431659,8.96800962 16.4502524,9.2292476 C15.8569519,9.4908726 15.1092308,9.62129808 14.2070889,9.62129808 C12.6228257,9.62129808 11.5254327,9.31884255 10.9154904,8.714125 C10.3055481,8.10921394 9.96071394,7.34098077 9.88060096,6.40923197" id="Path" fill="#FFFFFF" fill-rule="nonzero"></path>
                                    <path d="M19.2414351,6.40923197 L22.1013137,6.24049159 C22.156851,6.6795649 22.2698606,7.01336899 22.4405361,7.24248437 C22.7182224,7.61440986 23.1149171,7.80075962 23.6306202,7.80075962 C24.0153173,7.80075962 24.311774,7.70342428 24.5197969,7.50933413 C24.7274327,7.31505048 24.8319279,7.08961178 24.8319279,6.83379207 C24.8319279,6.59151803 24.7394303,6.37420673 24.5554026,6.18205168 C24.3698269,5.98970312 23.8934062,5.80780409 23.1273017,5.63751562 C21.8716178,5.35170192 20.9764423,4.9749387 20.4413882,4.5060649 C19.9011094,4.03738462 19.63097,3.44060096 19.63097,2.71610096 C19.63097,2.2379387 19.7699099,1.78744832 20.0475962,1.36366226 C20.3248954,0.939876202 20.7428762,0.606459135 21.3001839,0.363798077 C21.8571046,0.121717548 22.6214675,0.000580528846 23.5924988,0.000580528846 C24.7827764,0.000580528846 25.69053,0.224858173 26.3155661,0.673800481 C26.9404087,1.1229363 27.3123341,1.83756731 27.4319231,2.81808053 L24.5716575,2.99069111 C24.5093474,2.53710457 24.3789219,2.20678365 24.1805745,2.0005024 C23.9820337,1.79364062 23.7086046,1.6905 23.3587392,1.6905 C23.0719579,1.6905 22.8552272,1.76190505 22.7097079,1.90490865 C22.5643822,2.04810577 22.4914291,2.22149038 22.4914291,2.42583654 C22.4914291,2.57503245 22.5252933,2.70971514 22.5926346,2.83007812 C22.6578474,2.95353726 22.9438546,3.06828846 23.4504627,3.17549279 C24.7018894,3.44795433 25.598226,3.72273798 26.1400529,4.00139183 C26.6814928,4.27965865 27.0750913,4.62507332 27.3222031,5.03744231 C27.5683474,5.45000481 27.691613,5.91133173 27.691613,6.42161659 C27.691613,7.02052885 27.5263558,7.57241827 27.1960349,8.0782524 C26.8653269,8.58408654 26.403613,8.96800962 25.810506,9.2292476 C25.217399,9.4908726 24.4696779,9.62129808 23.5675361,9.62129808 C21.9830793,9.62129808 20.8864603,9.31884255 20.275744,8.714125 C19.6658017,8.10921394 19.3213546,7.34098077 19.2414351,6.40923197" id="Path" fill="#FFFFFF" fill-rule="nonzero"></path>
                                </g>
                                <polyline id="Path" fill="#FFFFFF" fill-rule="nonzero" points="4.4645979 16 3.45737796 21.0074145 23.9564282 21.0074145 23.3165933 24.241939 2.80392684 24.241939 1.81032309 29.2493535 22.3093733 29.2493535 21.1661175 34.9608847 12.9037369 37.6810793 5.74414168 34.9608847 6.23419849 32.4841287 1.1979727 32.4841287 0 38.4931264 11.8421783 43 25.4946796 38.4931264 27.3050027 29.4524279 27.6725138 27.6391738 30 16 4.4645979 16"></polyline>
                            </g>
                        </g>
                    </g>
                    <g id="ic_halfround_html" transform="translate(344.000000, 0.000000)">
                        <mask id="mask-10" fill="white">
                            <use xlink:href="#path-9"></use>
                        </mask>
                        <use id="BG" fill="#E44E25" fill-rule="nonzero" xlink:href="#path-9"></use>
                        <g id="vuejs" mask="url(#mask-10)">
                            <g transform="translate(30.000000, 23.750000)" id="Group-2">
                                <g>
                                    <g id="Group-6" fill="#FFFFFF" fill-rule="nonzero">
                                        <polyline id="Path" points="7.32747196e-14 -2.18991492e-13 2.83766199 -2.18991492e-13 2.83766199 3.14801798 6.0616204 3.14801798 6.0616204 -2.18991492e-13 8.89885696 -2.18991492e-13 8.89885696 9.06669169 6.0616204 9.06669169 6.0616204 5.4149568 2.83766199 5.4149568 2.83766199 9.06669169 7.32747196e-14 9.06669169 7.32747196e-14 -2.18991492e-13"></polyline>
                                        <polyline id="Path" points="10.059448 -2.18991492e-13 18.8289722 -2.18991492e-13 18.8289722 2.14058416 15.8628284 2.14058416 15.8628284 9.06669169 13.0255918 9.06669169 13.0255918 2.14058416 10.059448 2.14058416 10.059448 -2.18991492e-13"></polyline>
                                        <polyline id="Path" points="19.9899886 -2.18991492e-13 23.7297889 -2.18991492e-13 25.1543633 5.5370571 26.5646855 -2.18991492e-13 30.3072511 -2.18991492e-13 30.3072511 9.06669169 27.9856437 9.06669169 27.9856437 2.1922747 26.234334 9.06669169 24.0803486 9.06669169 22.3113833 2.1922747 22.3113833 9.06669169 19.9899886 9.06669169 19.9899886 -2.18991492e-13"></polyline>
                                        <polyline id="Path" points="32.1125913 -2.18991492e-13 34.9494024 -2.18991492e-13 34.9494024 6.80017831 39.46371 6.80017831 39.46371 9.06669169 32.1125913 9.06669169 32.1125913 -2.18991492e-13"></polyline>
                                    </g>
                                    <polyline id="Path" fill="#FFFFFF" fill-rule="nonzero" points="20.43446 35.6744473 20.4132344 35.6744473 6.66015527 35.6744473 5.14732129 19.1123584 5 17.5 20.4132344 17.5 20.43446 17.5 35.8321289 17.5 35.6851221 19.1123584 35.4046299 22.159252 35.2810498 23.5101426 35.2613965 23.5101426 20.43446 23.5101426 20.4132344 23.5101426 11.7269385 23.5101426 12.2894951 29.6646191 20.4132344 29.6646191 20.43446 29.6646191 33.0621113 29.6646191 34.7208516 29.6646191 34.570543 31.2785498 33.124373 47.1010449 33.0317666 48.1165713 20.4346172 51.5255576 20.4346172 51.526501 20.406002 51.5343623 7.79753223 48.1165713 6.93545898 38.679833 9.78314648 38.679833 13.1143057 38.679833 13.5526533 43.473042 20.4075742 45.2805186 20.4132344 45.2791035 20.4132344 45.2783174 27.2779033 43.4694258 27.9928125 35.6744473 20.43446 35.6744473"></polyline>
                                </g>
                            </g>
                        </g>
                    </g>
                </g>
            </g>
        </g>
    </g>
</svg>