<?xml version="1.0" encoding="UTF-8"?>
<svg width="80px" height="80px" viewBox="0 0 80 80" version="1.1" xmlns="http://www.w3.org/2000/svg" xmlns:xlink="http://www.w3.org/1999/xlink">
    <title>ic_halfround_html</title>
    <defs>
        <rect id="path-1" x="0" y="0" width="80" height="80" rx="25"></rect>
    </defs>
    <g id="Landing-Page" stroke="none" stroke-width="1" fill="none" fill-rule="evenodd">
        <g id="Home-Page" transform="translate(-860.000000, -1089.000000)">
            <g id="best-developers" transform="translate(165.000000, 854.000000)">
                <g id="software-icons" transform="translate(95.000000, 235.000000)">
                    <g id="ic_halfround_html" transform="translate(600.000000, 0.000000)">
                        <mask id="mask-2" fill="white">
                            <use xlink:href="#path-1"></use>
                        </mask>
                        <use id="BG" fill="#E44E25" fill-rule="nonzero" xlink:href="#path-1"></use>
                        <path d="M37.6333333,19 C35.0116162,19 32.8555556,21.156063 32.8555556,23.7777778 C32.8555556,27.0369341 34.6664069,31.0830573 36.5732639,34.8861111 C35.0827472,39.5520206 33.391347,44.5522111 31.228125,48.7715278 C26.8005602,50.508788 22.8520542,51.8000436 20.478125,53.7135417 C20.4411079,53.7513958 20.4062165,53.7912717 20.3736111,53.8329861 C19.5061159,54.7201239 19,55.92797 19,57.2222222 C19,59.8439322 21.1560613,62 23.7777778,62 C25.056238,62 26.2902176,61.522915 27.1819444,60.6114583 C27.2128058,60.5877995 27.2426916,60.5628946 27.2715278,60.5368056 C29.0189785,58.4501962 31.079432,54.6650289 32.9152778,51.2052083 C37.1463502,49.5408126 41.5809259,47.8472304 45.8600694,46.8305556 C48.9839287,49.3480914 53.5031388,51.0111111 57.2222222,51.0111111 C59.843937,51.0111111 62,48.8550433 62,46.2333333 C62,43.6116233 59.843937,41.4555556 57.2222222,41.4555556 C54.2397269,41.4555556 49.9055644,42.5202088 46.5916667,43.6354167 C43.9055489,41.1137514 41.4376637,37.964375 39.6638889,34.6173611 C40.9312317,30.7132081 42.4111111,26.8067499 42.4111111,23.7777778 C42.4111111,21.156063 40.255051,19 37.6333333,19 Z M37.6333333,21.8666667 C38.7057877,21.8666667 39.5444444,22.7053243 39.5444444,23.7777778 C39.5444444,25.2117943 38.7765442,27.8520326 37.8871528,30.690625 C36.6987207,27.9292032 35.7222222,25.279849 35.7222222,23.7777778 C35.7222222,22.7053243 36.5608794,21.8666667 37.6333333,21.8666667 Z M38.4545139,38.215625 C39.891508,40.5013856 41.5745136,42.6283328 43.4114583,44.5163194 C40.5781066,45.2910839 37.8109592,46.2838106 35.0802083,47.3232639 C36.3991244,44.3464217 37.4549846,41.2574211 38.4545139,38.215625 Z M57.2222222,44.3222222 C58.2946785,44.3222222 59.1333333,45.1608656 59.1333333,46.2333333 C59.1333333,47.3058011 58.2946785,48.1444444 57.2222222,48.1444444 C55.0691936,48.1444444 52.0091273,47.1725489 49.5628472,45.8152778 C52.3707788,45.0213067 55.4347074,44.3222222 57.2222222,44.3222222 Z M28.7048611,52.8774306 C27.3612946,55.2756839 26.0257848,57.5141683 25.0916667,58.640625 C24.7725708,58.9457339 24.3480925,59.1333333 23.7777778,59.1333333 C22.7053229,59.1333333 21.8666667,58.2946422 21.8666667,57.2222222 C21.8666667,56.7175456 22.0811626,56.216285 22.3743056,55.8934028 C23.4951082,55.026045 25.9334681,53.9866394 28.7048611,52.8774306 Z" id="acrobat-shape" fill="#FFFFFF" fill-rule="nonzero" mask="url(#mask-2)"></path>
                    </g>
                </g>
            </g>
        </g>
    </g>
</svg>