<?xml version="1.0" encoding="UTF-8"?>
<svg width="80px" height="80px" viewBox="0 0 80 80" version="1.1" xmlns="http://www.w3.org/2000/svg" xmlns:xlink="http://www.w3.org/1999/xlink">
    <title>ic_halfround_skill_vuejs</title>
    <defs>
        <rect id="path-1" x="0" y="0" width="80" height="80" rx="25"></rect>
        <path d="M17.4149509,11.5875271 C17.3962009,11.4562771 17.5930759,11.3719021 17.7149509,11.3156521 C17.8743259,11.2500271 18.0805759,11.2219021 18.2305759,11.3062771 C18.2680759,11.3250271 18.3055759,11.3719021 18.2868259,11.4094021 C18.2493259,11.5219021 18.0618259,11.5031521 17.9587009,11.5594021 C17.8649509,11.6062771 17.7899509,11.7187771 17.6774509,11.7187771 C17.5837009,11.7281521 17.4243259,11.6812771 17.4149509,11.5875271 L17.4149509,11.5875271 Z M19.7305759,11.5594021 C19.8243259,11.6062771 19.8993259,11.7187771 20.0118259,11.7187771 C20.1149509,11.7187771 20.2743259,11.6812771 20.2837009,11.5781521 C20.3024509,11.4469021 20.1055759,11.3625271 19.9837009,11.3062771 C19.8243259,11.2406521 19.6180759,11.2125271 19.4680759,11.2969021 C19.4305759,11.3156521 19.3930759,11.3625271 19.4118259,11.4000271 C19.4399509,11.5219021 19.6274509,11.5031521 19.7305759,11.5594021 L19.7305759,11.5594021 Z M39.8587009,40.6406521 C39.8118259,41.4094021 39.2493259,41.9344021 38.5555759,42.3562771 C37.1587009,43.2000271 35.0587009,43.8375271 33.7837009,45.3750271 L33.5399509,45.1687771 L33.7837009,45.3750271 C32.4524509,46.9594021 30.8118259,47.8687771 29.2555759,47.9906521 C27.7087009,48.1125271 26.2555759,47.4000271 25.4774509,45.8344021 L25.4774509,45.8250271 C25.3743259,45.6281521 25.2993259,45.4125271 25.2430759,45.1969021 C23.2274509,45.3094021 21.4743259,44.7000271 20.0774509,44.8125271 C18.0149509,44.9250271 16.7212009,45.4219021 15.5493259,45.4312771 C15.0993259,46.4250271 14.2087009,47.0812771 13.1212009,47.3250271 C11.6212009,47.6719021 9.73682587,47.3250271 7.88057587,46.3500271 L8.03057587,46.0687771 L7.88057587,46.3500271 C6.14620087,45.4312771 3.94307587,45.5156521 2.32120087,45.1781521 C1.50557587,45.0094021 0.79307587,44.7094021 0.43682587,44.0250271 C0.08995087,43.3406521 0.15557587,42.4031521 0.64307587,41.0531521 C0.80245087,40.5750271 0.68057587,39.8625271 0.56807587,39.1031521 C0.51182587,38.7375271 0.45557587,38.3625271 0.45557587,37.9969021 C0.45557587,37.5937771 0.52120087,37.2000271 0.71807587,36.8344021 C1.13995087,36.0375271 1.82432587,35.7000271 2.45245087,35.4750271 C3.08057587,35.2500271 3.65245087,35.1000271 4.04620087,34.6969021 C4.53370087,34.1812771 4.99307587,33.3469021 5.60245087,32.8031521 C5.35870087,31.1906521 5.62120087,29.4844021 6.18370087,27.8062771 C7.36495087,24.2531521 9.85870087,20.8500271 11.6305759,18.7406521 C13.1399509,16.5937771 13.5805759,14.8687771 13.7399509,12.6750271 C13.8430759,9.69377711 11.4430759,-0.0187228899 21.0430759,-1.06581376e-14 C28.6274509,0.00940211011 28.1962009,8.00627711 28.1493259,12.3094021 C28.1212009,15.1312771 29.6774509,17.0437771 31.2805759,19.0594021 C32.7055759,20.7469021 34.5712009,23.2125271 35.6399509,26.0344021 C36.5118259,28.3406521 36.8493259,30.8906521 35.9868259,33.4500271 C36.1180759,33.4969021 36.2493259,33.5625271 36.3712009,33.6375271 C36.5024509,33.7125271 36.6243259,33.8062771 36.7462009,33.9094021 C37.3649509,34.4344021 37.5618259,35.2500271 37.7305759,36.0094021 C37.9087009,36.7687771 38.0680759,37.4812771 38.4055759,37.8562771 C39.4462009,39.0187771 39.8962009,39.8719021 39.8587009,40.6406521 Z M20.9493259,10.6406521 C20.7524509,9.49690211 21.3712009,8.43752711 22.0555759,8.48440211 C22.8899509,8.51252711 23.3587009,9.93752711 22.9087009,11.0437771 C22.8337009,11.2219021 22.6462009,11.3625271 22.5430759,11.4750271 C23.1712009,11.6906521 23.5743259,11.8594021 23.7243259,11.9344021 C24.4649509,11.0437771 24.7368259,9.47815211 24.1274509,8.14690211 C23.2087009,6.14065211 20.9212009,6.10315211 20.0024509,8.18440211 C19.7024509,8.85940211 19.6368259,9.58127711 19.7305759,10.2281521 C20.0680759,10.3125271 20.5649509,10.4531521 20.9493259,10.6406521 Z M15.9524509,11.4750271 C15.2024509,10.8281521 15.3337009,8.90627711 16.1212009,8.84065211 C16.7118259,8.79377711 17.1337009,9.84377711 17.0212009,10.6781521 C17.3118259,10.4812771 17.6493259,10.3406521 17.9774509,10.2469021 C18.1368259,8.43752711 17.1337009,7.10627711 16.1868259,7.10627711 C14.4149509,7.10627711 13.9368259,10.6219021 15.3993259,11.9906521 C16.1305759,11.4562771 16.0462009,11.5500271 15.9524509,11.4750271 Z M14.5180759,13.9500271 C14.6587009,14.4094021 15.0899509,14.9344021 15.8962009,15.3844021 C16.6274509,15.8156521 17.0212009,16.4625271 17.7712009,16.7906521 C18.0149509,16.8937771 18.3055759,16.9687771 18.6712009,16.9875271 C20.3962009,17.0906521 21.2118259,15.9281521 22.2524509,15.5906521 C23.3493259,15.2437771 24.1368259,14.5594021 24.3805759,13.8937771 C24.6805759,13.0969021 24.1837009,12.5156521 23.3962009,12.1875271 C22.3368259,11.7281521 21.8680759,11.7000271 21.2774509,11.3156521 C20.3118259,10.6969021 19.5149509,10.4812771 18.8493259,10.4812771 C17.4993259,10.4812771 16.6743259,11.4000271 16.2337009,11.8125271 C16.1868259,11.8594021 15.4930759,12.3656521 14.9118259,12.7969021 C14.5180759,13.1062771 14.3868259,13.4906521 14.5180759,13.9500271 L14.5180759,13.9500271 Z M11.3774509,37.6500271 L9.53995087,34.3125271 C8.90245087,33.4500271 8.24620087,32.9250271 7.48682587,32.8125271 C6.76495087,32.7000271 6.30557587,32.9437771 5.82745087,33.4594021 C5.37745087,33.9375271 5.00245087,34.6125271 4.48682587,35.1469021 C3.75557587,35.7562771 3.61495087,35.7281521 2.64932587,36.0750271 C2.05870087,36.2812771 1.58995087,36.5062771 1.26182587,37.1344021 C1.00870087,37.6031521 1.06495087,38.2781521 1.17745087,39.0094021 C1.28995087,39.7500271 1.45870087,40.5375271 1.23370087,41.2500271 L1.23370087,41.2687771 C0.76495087,42.5531521 0.76495087,43.3031521 0.98995087,43.7437771 C1.73057587,45.1875271 5.35870087,44.3156521 8.16182587,45.7969021 C11.1055759,47.3344021 14.9680759,47.4000271 15.2212009,44.1094021 C15.4180759,42.1875271 12.2680759,39.5156521 11.3774509,37.6500271 L11.3774509,37.6500271 Z M25.8055759,41.0062771 C26.1055759,39.9750271 26.3962009,39.0094021 26.4430759,38.2875271 C26.5180759,36.8625271 26.5930759,35.5969021 26.8555759,34.5469021 C27.1462009,33.3656521 27.7274509,32.3812771 28.8618259,31.9875271 C29.0774509,30.0094021 30.6149509,30.0094021 32.4524509,30.8156521 C34.2243259,31.6125271 34.8899509,32.3156521 34.5899509,33.2625271 C34.6837009,33.2625271 34.7774509,33.2531521 34.9837009,33.2625271 C35.4712009,31.6781521 33.6430759,30.6375271 32.1055759,30.0000271 C32.3774509,28.8750271 32.3305759,27.7406521 32.0680759,26.6531521 C31.5055759,24.2812771 29.9493259,22.1719021 28.7680759,21.1219021 C28.5524509,21.1125271 28.5712009,21.3000271 29.0118259,21.7312771 C30.0993259,22.7344021 32.4899509,26.3437771 31.1962009,29.6906521 C30.8305759,29.5969021 30.4837009,29.5500271 30.1743259,29.5594021 C29.6774509,26.8312771 28.5337009,24.5719021 27.9618259,23.5031521 C26.8837009,21.4969021 25.1962009,17.3812771 24.4743259,14.5312771 C24.0524509,15.1312771 23.3118259,15.6469021 22.3837009,15.9375271 C21.9430759,16.0781521 21.4743259,16.4531521 20.8930759,16.7812771 C19.5899509,17.5312771 18.0805759,17.6062771 16.9180759,16.6687771 C16.4962009,16.3312771 16.1680759,15.9562771 15.7368259,15.7031521 C15.5868259,15.6187771 15.2587009,15.3937771 15.1555759,15.3187771 C14.9680759,18.8625271 12.5962009,23.3156521 11.4712009,25.8844021 C10.6930759,27.7312771 10.2337009,29.7094021 10.1774509,31.6500271 C8.13370087,28.9219021 9.62432587,25.4344021 10.4212009,23.9250271 C11.3118259,22.2750271 11.4524509,21.8156521 11.2368259,21.9750271 C10.4305759,23.2875271 9.17432587,25.3781521 8.68682587,27.5250271 C8.43370087,28.6406521 8.38682587,29.7750271 8.71495087,30.8250271 C9.04307587,31.8750271 9.75557587,32.8406521 11.0212009,33.6281521 C11.0212009,33.6281521 13.3462009,34.9687771 14.6118259,36.6750271 C15.3055759,37.6125271 15.5212009,38.4281521 15.3055759,39.0094021 C15.0712009,39.6375271 14.4055759,39.8437771 13.7399509,39.8437771 C14.1899509,40.4062771 14.7055759,41.0625271 15.0899509,41.6812771 C18.6149509,44.0906521 22.7962009,43.1531521 25.8055759,41.0062771 L25.8055759,41.0062771 Z M37.9368259,38.2969021 C36.9993259,37.2375271 37.2618259,35.1937771 36.3337009,34.3969021 C35.6868259,33.8344021 35.0587009,33.8906521 34.2149509,33.9187771 C33.4930759,34.7437771 31.7962009,35.7562771 30.6149509,35.4469021 C29.5368259,35.1750271 28.9274509,33.9187771 28.8524509,32.6812771 C28.8243259,32.7000271 28.7868259,32.7094021 28.7587009,32.7281521 C28.0930759,33.0937771 27.7180759,33.7406521 27.4743259,34.7062771 C27.2399509,35.6625271 27.1555759,36.9094021 27.0805759,38.3344021 C27.0149509,39.4406521 26.4993259,40.8094021 26.1524509,42.1406521 C25.8243259,43.3781521 25.6087009,44.5031521 26.0493259,45.5437771 C26.7243259,46.9031521 27.8774509,47.4562771 29.2087009,47.3531521 C30.5399509,47.2500271 32.0587009,46.4344021 33.2962009,44.9625271 C35.3587009,42.4687771 39.1368259,42.1781521 39.2212009,40.6031521 C39.2493259,40.1250271 38.9305759,39.3844021 37.9368259,38.2969021 Z M15.2774509,13.9406521 C15.4649509,14.1187771 15.7180759,14.3625271 16.0274509,14.6062771 C16.6462009,15.0937771 17.5087009,15.6000271 18.5868259,15.6000271 C19.6743259,15.6000271 20.6962009,15.0469021 21.5680759,14.5875271 C22.0274509,14.3437771 22.5899509,13.9312771 22.9555759,13.6125271 C23.3212009,13.2937771 23.5087009,13.0219021 23.2462009,12.9937771 C22.9837009,12.9656521 23.0024509,13.2375271 22.6837009,13.4719021 C22.2712009,13.7719021 21.7743259,14.1656521 21.3805759,14.3906521 C20.6868259,14.7844021 19.5524509,15.3469021 18.5774509,15.3469021 C17.6024509,15.3469021 16.8243259,14.8969021 16.2430759,14.4375271 C15.9524509,14.2031521 15.7087009,13.9687771 15.5212009,13.7906521 C15.3805759,13.6594021 15.3430759,13.3594021 15.1180759,13.3312771 C14.9868259,13.3219021 14.9493259,13.6781521 15.2774509,13.9406521 L15.2774509,13.9406521 Z" id="path-3"></path>
    </defs>
    <g id="Landing-Page" stroke="none" stroke-width="1" fill="none" fill-rule="evenodd">
        <g id="Home-Page" transform="translate(-660.000000, -1089.000000)">
            <g id="best-developers" transform="translate(165.000000, 854.000000)">
                <g id="software-icons" transform="translate(95.000000, 235.000000)">
                    <g id="ic_halfround_skill_vuejs" transform="translate(400.000000, 0.000000)">
                        <mask id="mask-2" fill="white">
                            <use xlink:href="#path-1"></use>
                        </mask>
                        <use id="BG" fill="#41B8B5" fill-rule="nonzero" xlink:href="#path-1"></use>
                        <g id="linux" mask="url(#mask-2)">
                            <g transform="translate(20.000000, 16.000000)">
                                <mask id="mask-4" fill="white">
                                    <use xlink:href="#path-3"></use>
                                </mask>
                                <use id="Mask" stroke="none" fill="#FFFFFF" fill-rule="nonzero" xlink:href="#path-3"></use>
                            </g>
                        </g>
                    </g>
                </g>
            </g>
        </g>
    </g>
</svg>