<?xml version="1.0" encoding="UTF-8"?>
<svg width="1154px" height="348px" viewBox="0 0 1154 348" version="1.1" xmlns="http://www.w3.org/2000/svg" xmlns:xlink="http://www.w3.org/1999/xlink">
    <title>Quote</title>
    <defs>
        <rect id="path-1" x="0" y="0" width="1110" height="280" rx="5"></rect>
        <filter x="-3.5%" y="-18.2%" width="107.0%" height="136.4%" filterUnits="objectBoundingBox" id="filter-3">
            <feOffset dx="0" dy="-12" in="SourceAlpha" result="shadowOffsetOuter1"></feOffset>
            <feGaussianBlur stdDeviation="11" in="shadowOffsetOuter1" result="shadowBlurOuter1"></feGaussianBlur>
            <feColorMatrix values="0 0 0 0 0.321568627   0 0 0 0 0.341176471   0 0 0 0 0.407843137  0 0 0 0.05 0" type="matrix" in="shadowBlurOuter1" result="shadowMatrixOuter1"></feColorMatrix>
            <feOffset dx="0" dy="12" in="SourceAlpha" result="shadowOffsetOuter2"></feOffset>
            <feGaussianBlur stdDeviation="11" in="shadowOffsetOuter2" result="shadowBlurOuter2"></feGaussianBlur>
            <feColorMatrix values="0 0 0 0 0.321568627   0 0 0 0 0.341176471   0 0 0 0 0.407843137  0 0 0 0.1 0" type="matrix" in="shadowBlurOuter2" result="shadowMatrixOuter2"></feColorMatrix>
            <feMerge>
                <feMergeNode in="shadowMatrixOuter1"></feMergeNode>
                <feMergeNode in="shadowMatrixOuter2"></feMergeNode>
            </feMerge>
        </filter>
    </defs>
    <g id="Landing-Page" stroke="none" stroke-width="1" fill="none" fill-rule="evenodd">
        <g id="Home-Page" transform="translate(-144.000000, -2922.000000)">
            <g id="testimonial" transform="translate(142.000000, 2780.000000)">
                <g id="testimonial-slider" transform="translate(0.000000, 176.000000)">
                    <g id="Quote" transform="translate(24.000000, 0.000000)">
                        <mask id="mask-2" fill="white">
                            <use xlink:href="#path-1"></use>
                        </mask>
                        <g id="Mask">
                            <use fill="black" fill-opacity="1" filter="url(#filter-3)" xlink:href="#path-1"></use>
                            <use fill="#FFFFFF" fill-rule="evenodd" xlink:href="#path-1"></use>
                        </g>
                        <g mask="url(#mask-2)" font-family="OpenSans, Open Sans" font-size="22" font-weight="normal" id="“Drupal-site-buildin" letter-spacing="0.75" line-spacing="40">
                            <g transform="translate(462.000000, 120.000000)">
                                <text>
                                    <tspan x="0" y="24" fill="#32325D">“Drupal site building for a United Nations Project“</tspan>
                                </text>
                            </g>
                        </g>
                        <polygon id="Path-2" fill="#FFE6ED" mask="url(#mask-2)" points="450 0.5 346.2878 280 0 280 0 0"></polygon>
                        <g id="UN_emblem_blue" mask="url(#mask-2)" fill="#418FDE" fill-rule="nonzero">
                            <g transform="translate(91.000000, 59.000000)" id="Shape">
                                <path d="M94.9796279,0 C84.1824133,0 73.9963618,2.58053097 64.951148,7.16814159 L65.6845437,8.60176991 C74.4038038,4.17800253 84.1009249,1.76131479 94.1647438,1.63843236 L94.1647438,13.8037927 C85.9751584,13.9266751 78.193015,15.9337547 71.3072442,19.3744627 L72.0406399,20.808091 C78.8449223,17.4083439 86.3826004,15.5651075 94.1647438,15.442225 L94.1647438,26.4606827 C88.0531129,26.5835651 82.3081798,28.0581542 77.1336656,30.5977244 L77.1336656,30.5977244 C73.2629661,32.4819216 69.7589643,34.980531 66.7031489,37.9297092 L58.9617497,30.1061947 C62.8731935,26.2968394 67.314312,23.183818 72.0813841,20.808091 L71.3479884,19.3744627 L71.3479884,19.3744627 C66.3771952,21.8730721 61.8138442,25.108976 57.8616562,28.959292 L49.2646287,20.3165613 C54.1946776,15.4831858 59.7358897,11.5509482 65.7252879,8.51984829 L64.9918922,7.08621997 C51.9130021,13.6809102 41.2787643,24.453603 34.8004355,37.6429836 L34.8004355,37.6429836 C30.4000613,46.6134008 27.8739205,56.7307206 27.8739205,67.4214918 C27.8739205,73.9752212 28.8110373,80.3651075 30.5630381,86.4273072 L32.1520621,86.0176991 C30.4815497,80.2831858 29.5851772,74.3029077 29.5036888,68.1997472 L41.5639738,68.1997472 C41.6454622,73.2788875 42.4196021,78.2761062 43.8456493,83.0275601 L45.4346733,82.617952 C44.0493703,77.9893805 43.2752304,73.1560051 43.193742,68.1587863 L54.1539334,68.1587863 C54.1946776,69.7972187 54.3169102,71.3946903 54.5206313,72.951201 C53.7464914,73.0331226 53.0538399,73.2788875 53.0538399,73.2788875 L52.7278862,74.3848293 C51.9944905,74.5077118 51.50556,75.7774968 51.50556,75.7774968 C50.8943969,75.9823009 50.4054665,76.7605563 50.6091875,76.9653603 C50.8129085,77.1701643 50.2832338,77.252086 50.2832338,77.252086 L50.2832338,78.7676359 L49.9572802,79.2591656 L50.0387686,80.897598 C50.4462107,80.897598 50.3647223,81.6758534 50.3647223,81.6758534 C49.6720708,81.757775 49.8350476,82.6589128 49.8350476,82.6589128 L48.4090004,83.1504425 L48.1237909,83.5600506 L46.3717901,83.478129 L45.8828596,83.9696587 L45.8828596,83.9696587 C45.7198828,83.5190898 45.5976502,83.0685209 45.4346733,82.617952 L43.8456493,83.0275601 C43.8863935,83.1914033 43.9271377,83.3552465 44.0086261,83.5190898 L42.01216,83.5190898 L41.8899274,83.1914033 L41.1972759,83.0685209 L41.1157875,82.2902655 L40.0971823,82.3721871 L39.8934613,82.7817952 L38.7933677,82.8637168 C38.8748561,83.5600506 37.6932742,84.5840708 37.5710416,84.2973451 C37.4488089,84.0106195 36.674669,83.2733249 37.0413669,83.1094817 C37.3673205,82.9865992 38.2636931,82.822756 38.2636931,82.822756 L38.2636931,82.3312263 L35.7375523,82.2493047 L35.4523428,82.6589128 L34.4337377,82.7408344 L34.4337377,83.8467762 L33.9448072,83.9696587 C33.6188536,84.1744627 34.0262956,84.9527181 34.0262956,84.9527181 C34.5152261,85.4442478 33.9448072,86.1815424 33.9448072,86.1815424 C33.5373652,86.5911504 34.2707609,87.3694058 34.2707609,87.3694058 C34.8004355,87.4922882 33.9448072,87.9018963 33.9448072,87.9018963 C34.0670398,88.5982301 34.4744819,88.8030341 34.4744819,88.8030341 C34.0670398,89.4993679 34.7596913,89.8270544 34.7596913,89.8270544 L34.8411797,91.0149178 L35.3301102,91.3016435 L35.3301102,92.0798989 L35.6153197,92.5714286 L36.7154132,92.5714286 L36.674669,90.9329962 C35.7375523,89.8270544 37.4895531,89.5403287 37.5710416,89.9499368 C37.65253,90.3595449 38.3859257,90.5643489 38.3859257,90.5643489 C38.5081583,91.5883692 39.6897403,92.2027813 40.0156939,91.1787611 C40.3416476,90.1547408 40.626857,90.769153 40.830578,91.2606827 C41.0342991,91.7522124 42.3381137,92.9400759 42.3381137,92.9400759 L43.3567188,92.9400759 L43.4789514,93.9231353 C44.6197892,93.8412137 44.9864871,94.0050569 45.4346733,95.5615676 C45.9236038,97.1590392 47.1866742,97.5686473 47.1866742,97.5686473 L48.1237909,97.4867257 C48.1237909,96.6675095 49.0609077,97.6096081 49.0609077,98.060177 C49.0609077,98.4697851 50.8943969,100.067257 50.8943969,100.067257 L52.7278862,100.476865 L53.0538399,100.76359 C54.1946776,102.197219 55.3762596,103.548925 56.63933,104.900632 L48.0830467,113.502402 C40.5046244,105.678887 35.1263892,96.2169406 32.1520621,86.0176991 L30.5630381,86.4273072 C33.700342,97.1590392 39.4045308,107.112516 47.4718836,115.263717 C52.9316072,120.752465 59.206215,125.217193 66.0104974,128.453097 L66.8253815,127.019469 C60.387797,123.947408 54.4798871,119.810367 49.2238845,114.649305 L57.7801678,106.047535 C62.2212862,110.389381 67.314312,113.871049 72.7740356,116.369659 L73.5889197,114.93603 C68.2106845,112.478382 63.2806356,109.119595 58.9210055,104.900632 L60.5100296,103.303161 C60.591518,103.467004 60.6730064,103.630847 60.6730064,103.876612 C60.795239,104.900632 61.2841695,104.695828 61.2841695,104.695828 L65.1548691,104.613906 L66.4994279,103.426043 L69.9626854,103.344121 C71.7146862,103.2622 70.6553369,100.845512 70.288639,100.845512 C70.084918,100.681669 70.0441738,100.353982 70.084918,99.985335 C72.855524,102.115297 75.829851,103.876612 78.9671549,105.228319 L79.782039,103.79469 C76.1558047,102.27914 72.7332914,100.149178 69.6774759,97.5686473 L67.8439867,95.8482933 L76.3595257,87.2874842 C79.1301317,89.908976 82.3081798,91.8750948 85.7714373,93.1039191 L85.7714373,93.1039191 C86.7085541,93.4316056 87.686415,93.7183312 88.664276,93.9640961 C88.5012991,94.1279393 88.4198107,94.2508217 88.4605549,94.3327434 C88.5827875,94.6604298 87.9308802,95.0290771 87.9308802,95.0290771 L87.3197172,95.2338812 L86.9122751,95.8482933 L86.097391,96.135019 L85.9751584,97.5686473 L85.5677163,97.8553729 L85.5677163,98.4697851 L85.0787858,98.5926675 L85.0787858,98.920354 L84.3861343,99.0022756 L84.7935764,100.026296 L85.3232511,100.313021 C86.2603678,100.435904 85.8529257,101.623767 85.8529257,101.623767 L86.3826004,101.705689 L86.6678099,102.483944 L87.1974845,103.589886 C87.4012056,104.409102 88.0123687,104.204298 88.2975781,104.163338 C88.5827875,104.081416 88.8272528,104.982554 88.8272528,104.982554 L91.5163704,105.064475 C91.5163704,105.064475 91.3941378,105.351201 91.842324,105.474083 C92.0867893,105.556005 93.1461386,105.637927 94.0832554,105.637927 L94.0832554,106.866751 C89.071718,106.784829 84.2639017,105.678887 79.782039,103.79469 L78.9671549,105.228319 C83.6934828,107.235398 88.7865086,108.423262 94.0832554,108.505183 L94.0832554,119.523641 C86.8715309,119.400759 79.9042717,117.803287 73.5074313,114.89507 L72.6925472,116.328698 C79.3338528,119.359798 86.5863214,121.039191 94.0832554,121.162073 L94.0832554,133.327434 C84.4676227,133.204551 75.1779438,131.033628 66.7438931,126.978508 L65.929009,128.412137 C74.8519901,132.713021 84.712088,134.965866 94.8981395,134.965866 C105.573121,134.965866 115.881406,132.467257 125.171085,127.756764 C131.445692,124.56182 137.272114,120.342857 142.405884,115.222756 C147.784119,109.815929 152.143749,103.630847 155.362541,96.9542351 L155.362541,96.9542351 C159.722171,87.9018963 162.044591,77.8664981 162.044591,67.5034134 C162.044591,58.6968394 160.374079,50.1360303 157.155286,42.1896334 C153.814261,33.9155499 148.843468,26.2968394 142.36514,19.7840708 C135.846067,13.2303413 128.267644,8.23312263 119.955826,4.87433628 L119.955826,4.87433628 C112.173683,1.67939317 103.698888,0 94.9796279,0 L94.9796279,0 Z M95.794512,1.63843236 C104.024842,1.72035398 112.05145,3.35878635 119.466896,6.38988622 L119.466896,6.38988622 C127.289783,9.54386852 134.501508,14.2543616 140.735371,20.3575221 L133.482903,27.6485461 C133.238437,27.7304678 132.953228,27.7304678 132.790251,27.6485461 C132.301321,27.4437421 132.993972,26.9522124 132.993972,26.9522124 L132.993972,26.4197219 L132.58653,26.0101138 C132.58653,26.0101138 131.445692,26.1329962 131.364204,25.9281922 C131.282715,25.7233881 131.078994,24.8222503 131.078994,24.8222503 L130.997506,23.6343869 L130.508576,23.4295828 L130.427087,23.0199747 L129.693691,23.1018963 L129.693691,22.2826802 L129.286249,22.1597977 L128.878807,21.9549937 L128.797319,21.1357775 L127.289783,21.0538559 L126.800853,20.3575221 L126.271178,19.5383059 L124.559921,19.4154235 L124.152479,19.0058154 L123.459828,18.882933 L122.970897,18.678129 L122.767176,19.0058154 L121.463362,19.087737 L121.381873,19.4973451 C120.974431,19.7021492 119.874338,19.7021492 119.018709,19.7021492 C117.674151,19.0058154 116.41108,18.3094817 115.025777,17.7360303 L114.455358,19.2515803 C115.596196,19.7021492 116.533313,20.2756005 117.633406,20.8490518 C117.551918,21.0948167 117.47043,21.2586599 117.307453,21.2586599 C116.981499,21.2586599 117.103732,22.1597977 117.103732,22.1597977 C117.103732,22.1597977 118.000104,22.1597977 118.24457,22.2417193 C118.529779,22.323641 118.529779,23.0199747 118.529779,23.0199747 C119.548384,22.9380531 119.955826,24.3307206 119.833594,24.6993679 C119.711361,25.0270544 120.241036,25.0270544 120.241036,25.0270544 C120.241036,25.0270544 120.241036,26.1329962 120.118803,26.4197219 C119.99657,26.7064475 121.015176,26.9112516 121.259641,27.3208597 C121.54485,27.7304678 121.137408,29.1231353 120.933687,29.2050569 C120.729966,29.2869785 121.463362,29.4917826 121.422618,29.819469 C121.341129,30.1471555 121.626339,29.819469 121.707827,30.3929204 C121.789315,30.9254109 121.911548,32.1132743 121.911548,32.1132743 L122.848665,32.195196 C122.970897,31.2940582 124.722898,31.2530973 125.008108,31.3759798 C126.148946,31.7855879 127.045318,33.5878635 127.045318,33.9974716 C127.045318,34.4070796 126.311922,34.4890013 126.311922,34.4890013 L126.352667,34.9395702 L123.989503,37.3152971 C123.745037,37.1514539 123.500572,37.0695322 123.37834,37.1924147 C123.052386,37.3972187 123.174618,35.7587863 123.174618,35.7587863 C123.174618,35.7587863 123.785782,35.3491783 124.070991,35.5539823 C124.3562,35.7587863 121.789315,32.1132743 121.218897,32.4409608 C120.689222,32.7686473 119.466896,32.1132743 119.50764,31.4579014 C119.589128,30.8434893 117.062988,28.754488 117.062988,28.754488 C117.062988,28.754488 116.248103,28.2219975 116.125871,28.6316056 C116.003638,29.0412137 115.718429,29.3279393 116.125871,29.5327434 C116.533313,29.7375474 116.451824,29.2050569 116.940755,29.6556258 C117.429685,30.1471555 118.285314,30.7615676 117.95936,31.1711757 C117.633406,31.5807838 117.225964,31.7036662 117.225964,31.7036662 L117.714895,32.2771176 L118.448291,32.2771176 L118.570523,33.464981 C118.570523,33.464981 119.385407,33.8745891 119.589128,34.3661188 C119.711361,34.6938053 119.752105,34.8986094 119.711361,35.1034134 C118.203825,33.9565107 116.614801,32.8915297 114.985033,31.9494311 C114.985033,31.8265487 115.025777,31.7036662 114.985033,31.5807838 C114.8628,31.0892541 115.514708,30.8844501 115.881406,31.4579014 L116.574057,31.3759798 L116.69629,30.7615676 L115.759173,29.9833123 L115.025777,29.9833123 C115.025777,29.9833123 114.944289,30.5158028 114.496103,30.3109987 C114.007172,30.1061947 114.292382,30.1881163 113.88494,30.1061947 C113.518242,30.0242731 113.59973,30.8025284 113.681218,31.1711757 C112.621869,30.6386852 111.56252,30.1471555 110.462426,29.6965866 L110.462426,29.6965866 C105.858331,27.8123894 100.928282,26.7474083 95.794512,26.6654867 L95.794512,20.3984829 C96.2426983,20.3984829 96.4464193,20.2346397 96.4871635,20.0707965 C96.5686519,19.7840708 96.6093961,19.74311 97.0168382,19.6611884 C97.4242803,19.5792668 96.9353498,18.7600506 96.5279077,18.8419722 C96.2426983,18.882933 95.9574888,18.8010114 95.794512,18.5962073 L95.794512,15.442225 C102.313585,15.5241466 108.588193,16.8348925 114.455358,19.2515803 L115.025777,17.7360303 C108.995635,15.2783818 102.476562,13.9266751 95.7537678,13.8447535 L95.794512,1.63843236 L95.794512,1.63843236 Z M107.121401,4.54664981 L106.469494,4.9562579 L106.021308,4.66953224 L105.817587,5.03817952 L106.347261,5.36586599 L106.469494,5.44778761 L106.591727,5.36586599 L107.325122,4.87433628 L107.121401,4.54664981 L107.121401,4.54664981 Z M110.217961,6.18508217 L109.688286,6.63565107 L109.362333,6.26700379 L109.077123,6.55372946 L109.566054,7.04525917 L109.688286,7.16814159 L109.810519,7.04525917 L110.50317,6.51276865 L110.217961,6.18508217 L110.217961,6.18508217 Z M44.9049986,6.55372946 C38.1822046,9.17522124 30.929736,11.8786346 26.5701059,18.8419722 C24.0032209,22.8970923 23.6365231,27.7304678 21.640057,31.9084703 C25.3885239,28.3858407 29.7074098,25.7643489 32.8854579,21.5863464 C36.674669,16.5481669 39.9749497,10.8955752 44.9049986,6.55372946 L44.9049986,6.55372946 Z M145.013513,6.55372946 C149.943562,10.936536 153.284587,16.5481669 157.073798,21.5863464 C160.251846,25.8053097 164.570732,28.3858407 168.319199,31.9084703 C166.322733,27.689507 165.915291,22.8970923 163.38915,18.8419722 C158.988776,11.8786346 151.777051,9.17522124 145.013513,6.55372946 L145.013513,6.55372946 Z M105.328656,7.41390645 C105.043447,7.45486726 104.758237,7.57774968 104.717493,7.70063211 C104.636005,7.98735777 104.228563,8.02831858 104.228563,8.02831858 L102.680283,8.15120101 C102.55805,8.5608091 101.743166,8.84753477 101.661678,8.5608091 L101.661678,8.5608091 C101.498701,7.94639697 100.643073,9.33906448 101.539445,9.58482933 C102.435818,9.87155499 103.291446,9.58482933 103.291446,9.58482933 L103.495167,9.17522124 L106.876936,9.25714286 C107.162146,8.97041719 107.284378,8.5608091 107.284378,8.5608091 C107.284378,8.5608091 108.099262,8.27408344 108.425216,8.43792668 C108.75117,8.5608091 108.506704,7.45486726 108.140006,7.61871049 C107.814053,7.74159292 107.121401,7.70063211 107.121401,7.70063211 L105.899075,7.70063211 C105.899075,7.45486726 105.613866,7.37294564 105.328656,7.41390645 L105.328656,7.41390645 Z M99.5022348,8.80657396 L98.6058622,9.13426043 L97.6687455,9.74867257 L96.6501403,9.87155499 L96.1204657,10.4859671 L98.2799086,10.6907712 L98.6873506,11.3871049 L100.23563,11.5099874 L101.254236,12.5340076 C102.150608,12.8207332 102.354329,12.4111252 101.78391,11.9195954 L101.78391,11.9195954 L100.887538,11.0184576 L100.887538,10.2402023 L100.602328,9.95347661 L100.317119,8.97041719 L99.5022348,8.80657396 L99.5022348,8.80657396 Z M26.7330827,15.7699115 C23.3105694,16.6710493 20.4177308,18.882933 17.8508458,21.7501896 C12.4726106,27.7714286 12.9207969,36.6189633 13.6541926,44.5243995 C13.8579136,46.982048 13.735681,49.0300885 13.4912158,51.5286979 C15.120984,48.1699115 17.7693574,44.9749684 20.9474055,42.5992415 C27.9554089,37.2743363 35.6153197,30.3929204 35.7375523,21.3815424 C33.4151325,27.894311 26.3663849,30.5977244 21.6808012,35.0214918 C19.1954046,37.3562579 17.2804269,40.1825537 16.1803334,43.131732 L16.0173565,43.0088496 C16.5877754,40.3873578 17.687869,38.0525917 18.4620089,35.5130215 C20.4177308,28.5906448 20.0510329,20.3575221 26.7330827,15.7699115 L26.7330827,15.7699115 Z M163.226173,15.7699115 C169.867479,20.3575221 169.500781,28.5906448 171.537991,35.5130215 C172.271387,38.0116308 173.37148,40.3873578 173.982643,43.0088496 L173.819667,43.131732 C172.719573,40.1825537 170.804595,37.3562579 168.319199,35.0214918 C163.633615,30.5567636 156.584867,27.894311 154.262448,21.3815424 C154.38468,30.4338812 162.044591,37.3152971 169.052595,42.5992415 C172.189898,44.9749684 174.879016,48.1699115 176.508784,51.5286979 C176.223575,49.0300885 176.101342,46.9410872 176.345807,44.5243995 C177.079203,36.6189633 177.527389,27.7714286 172.149154,21.7501896 C169.541525,18.882933 166.648686,16.6300885 163.226173,15.7699115 L163.226173,15.7699115 Z M126.434155,17.1216182 C125.90448,17.1216182 125.089596,17.4902655 125.171085,17.8998736 C125.252573,18.2275601 125.497038,18.5962073 126.067457,18.7190898 L127.086062,19.0467762 C127.086062,19.0467762 128.349133,20.5623262 128.308388,19.8250316 C128.186156,17.7360303 127.208295,17.6950695 126.882341,17.2854614 C126.800853,17.2035398 126.637876,17.1216182 126.434155,17.1216182 L126.434155,17.1216182 Z M105.206424,17.9817952 L104.921214,18.5962073 L105.287912,18.7600506 L105.573121,18.1456384 L105.206424,17.9817952 L105.206424,17.9817952 Z M106.469494,18.6371681 C106.42875,18.5962073 106.062052,19.1286979 105.776843,19.2925411 C106.102796,19.4563843 106.550982,19.7021492 106.550982,19.7021492 C107.080657,19.7021492 107.447355,20.1117573 107.447355,20.3165613 C107.447355,20.5213654 108.180751,20.4394437 108.180751,20.4394437 L108.262239,19.947914 L107.732564,19.2515803 L107.243634,18.9238938 C107.243634,18.9648546 106.469494,18.882933 106.469494,18.6371681 L106.469494,18.6371681 L106.469494,18.6371681 Z M105.776843,19.2925411 C105.450889,19.1286979 105.247168,19.0467762 105.613866,19.2925411 C105.65461,19.3335019 105.736098,19.3335019 105.776843,19.2925411 Z M103.535911,19.087737 L103.495167,19.4973451 L104.065586,19.5383059 L104.473028,20.1936789 L104.798982,19.9888748 L104.310051,19.2106195 L104.269307,19.1286979 L104.187818,19.1286979 C104.187818,19.1696587 103.535911,19.087737 103.535911,19.087737 Z M87.890136,20.808091 C87.5234382,20.808091 87.1974845,20.8900126 87.1974845,21.0128951 C87.278973,21.3405815 87.8086476,21.7911504 87.8086476,21.7911504 C87.8086476,21.7911504 88.8272528,21.8730721 88.9087412,22.0778761 C88.9902296,22.2826802 89.6421369,22.3646018 89.7236253,22.1597977 C89.8051137,21.9549937 90.049579,21.5453856 89.4384159,21.5453856 C88.8272528,21.5453856 88.9494854,21.2176991 88.7457644,20.9719343 C88.6235318,20.8490518 88.2568339,20.808091 87.890136,20.808091 L87.890136,20.808091 Z M141.876209,21.5044248 C147.947096,27.7304678 152.591935,34.980531 155.769983,42.8450063 L155.769983,42.8450063 C158.785055,50.3408344 160.414823,58.4101138 160.496311,66.6841972 L148.395282,66.6841972 C148.313794,60.0485461 147.009979,53.6176991 144.646815,47.637421 C144.320861,46.777244 143.954164,45.917067 143.546722,45.05689 C143.668954,44.6882427 143.872675,44.3195954 144.320861,44.4424779 C145.013513,44.6472819 144.524582,42.9269279 144.524582,42.9269279 C144.524582,42.9269279 143.587466,42.2305942 143.62821,41.9029077 C143.709698,41.5752212 142.691093,40.8788875 142.731837,40.5921618 C142.813326,40.3054362 141.835465,39.7729456 141.916953,39.48622 C141.998442,39.1994943 141.428023,38.4621997 141.428023,38.4621997 L140.409418,37.4791403 L140.287185,36.8647282 L139.472301,36.7828066 L137.842533,34.7757269 L137.924021,34.2022756 L137.435091,34.120354 L137.435091,33.3420986 L136.94616,33.0553729 L136.212764,32.9734513 L134.705229,31.335019 L134.582996,30.5567636 L133.8496,30.5567636 L133.971833,29.3689001 L141.876209,21.5044248 L141.876209,21.5044248 Z M105.084191,21.5044248 L105.084191,22.1188369 L105.817587,22.2007585 L105.613866,21.6273072 L105.084191,21.5044248 L105.084191,21.5044248 Z M48.0830467,21.5044248 L56.63933,30.1471555 C52.6463978,34.2841972 49.3053729,39.0356511 46.8199763,44.3195954 C43.5604398,51.1190898 41.6862064,58.6968394 41.5639738,66.725158 L29.4629445,66.725158 C29.5851772,56.7716814 31.9075969,47.1868521 36.1449943,38.5031606 L36.1449943,38.5031606 C39.1600656,32.3180784 43.1529978,26.5835651 48.0830467,21.5044248 L48.0830467,21.5044248 Z M108.384472,24.7403287 C108.302983,24.7403287 108.262239,24.7812895 108.262239,24.8222503 C108.262239,25.0270544 108.547449,25.0270544 108.669681,25.4366625 C108.791914,25.8462705 108.75117,26.5426043 109.362333,26.6654867 C109.973496,26.7883692 110.095728,26.9522124 110.177217,27.1979772 C110.258705,27.4847029 110.992101,27.5256637 110.992101,27.5256637 L111.521776,27.8123894 L113.151544,29.2050569 L113.151544,28.6725664 C113.151544,28.6725664 113.070055,28.1400759 112.744102,28.1400759 C112.418148,28.1400759 111.806985,27.7304678 111.929218,27.4437421 C112.05145,27.1570164 110.78838,26.9112516 110.78838,26.9112516 C110.78838,26.9112516 109.647542,25.8053097 110.054984,25.9281922 C110.462426,26.0510746 110.258705,25.4366625 110.258705,25.4366625 C110.258705,25.4366625 109.443821,25.5595449 109.2401,25.5185841 C109.036379,25.4366625 109.117867,24.8222503 109.117867,24.8222503 C109.117867,24.8222503 108.588193,24.6993679 108.384472,24.7403287 L108.384472,24.7403287 Z M71.1442674,25.2318584 L70.8590579,25.5185841 L71.2665,25.9281922 L71.5517094,25.6414665 L71.1442674,25.2318584 L71.1442674,25.2318584 Z M12.5133548,28.099115 C12.350378,28.0581542 12.2281454,28.2219975 12.1059128,28.2629583 C7.46107328,34.2432364 4.36451362,40.7560051 4.36451362,48.7433628 C4.36451362,58.6149178 10.0279583,65.5372946 10.7206098,74.7944374 C12.1874012,65.1276865 20.254754,58.2462705 24.4514072,49.6854614 C26.0811754,46.3676359 27.0997806,42.5992415 27.5479669,38.9537295 C26.9368038,40.5102402 25.999687,41.9438685 24.6958724,43.1726928 C19.2361488,48.3747155 12.8393085,53.4538559 11.6169823,60.8268015 C11.4540055,61.8917826 11.3317729,62.9567636 11.0465634,63.9807838 C10.8020982,64.1036662 10.8020982,63.8169406 10.7206098,63.735019 L11.4132613,54.6417193 C12.0651686,45.7941846 7.37958486,35.9226296 12.5133548,28.099115 L12.5133548,28.099115 Z M177.445901,28.099115 C182.579671,35.9226296 177.894087,45.7941846 178.545995,54.6826802 L179.238646,63.7759798 C179.157158,63.8579014 179.157158,64.1036662 178.912692,64.0217446 C178.627483,62.9977244 178.50525,61.9327434 178.342273,60.8677623 C177.119947,53.5357775 170.682363,48.4156764 165.263383,43.2136536 C163.959569,41.9848293 163.022452,40.551201 162.411289,38.9946903 C162.859475,42.6402023 163.87808,46.4085967 165.507849,49.7264223 C169.704502,58.2462705 177.771855,65.1276865 179.238646,74.8353982 C179.931298,65.5372946 185.594742,58.6558786 185.594742,48.7843236 C185.594742,40.7969659 182.498183,34.2432364 177.853343,28.3039191 C177.690366,28.1810367 177.608878,28.0581542 177.445901,28.099115 L177.445901,28.099115 Z M94.1647438,28.099115 L94.1647438,40.2644753 C90.3755326,40.3873578 86.7492983,41.2884956 83.4897618,42.8040455 L84.2231575,44.2376738 L84.2231575,44.2376738 C87.3197172,42.8040455 90.6607421,41.9848293 94.1647438,41.8619469 L94.1647438,52.9213654 C92.7386966,53.003287 91.3533936,53.2900126 90.049579,53.7815424 L90.049579,53.7815424 L89.9680906,53.003287 L90.2940442,52.7984829 L89.7643695,52.5936789 L89.3569275,53.1261694 L89.2346948,53.7405815 L88.5420433,53.863464 L88.5420433,54.1911504 L88.0531129,54.1911504 L88.0531129,54.6007585 C87.0752519,55.1332491 86.1381352,55.788622 85.2825069,56.5668774 L77.5003635,48.7433628 C79.4968296,46.8591656 81.7785051,45.3026549 84.2231575,44.1557522 L83.4897618,42.7221239 C80.8821326,43.9509482 78.4782244,45.5893805 76.4002699,47.5964602 L67.8439867,38.9946903 C70.8590579,36.0864728 74.240827,33.7517067 77.9078056,31.9494311 C82.8785987,29.5737042 88.4198107,28.1810367 94.1647438,28.099115 L94.1647438,28.099115 Z M95.794512,28.099115 C100.683817,28.1810367 105.450889,29.2050569 109.851263,31.0073325 C111.073589,31.4988622 112.255171,32.0723135 113.396009,32.6867257 C113.436753,32.7276865 113.518242,32.7686473 113.59973,32.8096081 C115.514708,33.8336283 117.348197,35.0624526 119.059454,36.4141593 L119.059454,36.4141593 C119.140942,36.905689 119.670617,37.110493 119.670617,37.110493 L119.99657,37.1514539 C120.200291,37.3152971 120.444757,37.5201011 120.648478,37.6839444 L120.648478,38.2573957 C121.137408,38.1345133 121.870804,38.7079646 121.993037,39.1585335 L113.558986,47.637421 C111.155078,45.3436157 108.384472,43.5823009 105.410145,42.3125158 C102.395073,41.0427307 99.1355369,40.346397 95.7537678,40.2235145 L95.794512,28.099115 L95.794512,28.099115 Z M57.7801678,31.2530973 L65.5623111,39.0766119 C62.4250073,42.3534766 59.8581223,46.1628319 57.9024004,50.2998736 L57.9024004,50.2998736 C55.6207248,55.2970923 54.276166,60.8268015 54.1539334,66.6841972 L43.193742,66.6841972 C43.3159746,59.0654867 45.0272313,51.7335019 48.2460235,45.05689 C50.6091875,40.0187105 53.8279798,35.3491783 57.7801678,31.2530973 L57.7801678,31.2530973 Z M126.96383,36.4960809 C127.900946,37.0695322 128.634342,38.3393173 128.512109,38.5850822 C128.389877,38.8718078 129.326994,38.7898862 129.326994,38.7898862 C129.449226,37.5610619 130.630808,37.97067 130.671552,38.3802781 C130.753041,38.7898862 130.956762,39.691024 130.956762,39.691024 L131.282715,40.3054362 L131.771646,40.7969659 L132.505042,40.7150442 L132.708763,41.1246523 L133.605135,41.2475348 C133.605135,41.2475348 134.338531,42.0667509 134.420019,42.271555 C134.501508,42.476359 135.520113,42.3944374 135.764578,42.476359 C136.049788,42.5582807 136.45723,42.7630847 136.497974,43.0907712 C136.579462,43.4184576 136.986904,43.991909 136.986904,43.991909 C136.986904,43.991909 137.801788,44.196713 137.883277,44.4834387 C137.964765,44.7701643 138.290719,45.3845765 138.290719,45.3845765 L138.98337,45.9580278 L139.064859,46.5724399 L139.798255,46.6543616 L140.001976,47.4735777 L141.224302,47.3916561 L141.916953,46.9001264 C142.120674,46.777244 142.324395,46.6543616 142.487372,46.5314791 C142.731837,47.1049305 142.976303,47.6783818 143.180024,48.2518331 C145.461699,54.0273072 146.72477,60.2533502 146.806258,66.6432364 L135.846067,66.6432364 C135.805322,64.6771176 135.642346,62.7519595 135.316392,60.8677623 C135.39788,60.5810367 135.438625,60.3352718 135.316392,60.2533502 C135.112671,60.0485461 135.520113,59.0654867 135.520113,59.0654867 C135.520113,59.0654867 135.805322,58.4920354 135.520113,57.9595449 C135.234903,57.3860936 135.601601,56.7716814 135.805322,56.5259166 L135.275648,56.2391909 L134.745973,56.1572693 L134.338531,56.2391909 C134.216298,55.788622 134.094066,55.3790139 133.931089,54.928445 L133.931089,54.928445 L134.257043,55.0103666 L134.257043,54.6007585 L133.768112,54.4778761 C133.686624,54.1911504 133.564391,53.9044248 133.482903,53.6176991 L133.401414,52.1840708 L132.912484,51.8563843 L133.034716,51.3238938 L132.505042,51.1190898 L132.790251,50.217952 L132.301321,49.2348925 L131.608669,49.2348925 C131.282715,48.5795196 130.956762,47.9241466 130.590064,47.3097345 C130.671552,47.2687737 130.753041,47.2278129 130.875273,47.1868521 C131.241971,47.1049305 131.364204,47.0639697 131.404948,47.0639697 L131.32346,46.3266751 L130.712297,45.917067 L130.508576,45.0978508 C130.508576,45.0978508 129.77518,45.2207332 129.815924,45.6303413 C129.815924,45.712263 129.77518,45.7941846 129.693691,45.8351454 C129.204761,45.05689 128.715831,44.3195954 128.186156,43.5823009 C128.186156,43.5413401 128.2269,43.5003793 128.2269,43.4594185 C128.512109,42.9678887 128.349133,42.6811631 127.900946,42.5582807 C127.412016,42.4353982 127.412016,42.4353982 127.289783,41.8619469 C127.167551,41.3294564 126.597132,41.1656131 126.597132,41.1656131 L126.393411,40.346397 L125.90448,40.6740834 C125.619271,40.346397 125.374806,40.0596713 125.089596,39.7319848 L125.334061,38.9537295 C125.048852,38.9127686 124.926619,38.7489254 124.845131,38.5850822 L126.96383,36.4960809 L126.96383,36.4960809 Z M83.4490176,38.1345133 L83.2045523,38.4621997 L83.6119944,38.7898862 L83.8564596,38.4621997 L83.4490176,38.1345133 Z M81.9007378,38.4212389 L81.9822262,39.1994943 L83.0008313,39.1994943 C83.4082734,39.1994943 82.6748777,38.7079646 82.6748777,38.7079646 C82.6748777,38.7079646 81.8192493,38.7898862 81.9007378,38.4212389 L81.9007378,38.4212389 Z M126.923085,38.5441214 L126.515643,38.5850822 L126.597132,39.1994943 L127.004574,39.1585335 L126.923085,38.5441214 L126.923085,38.5441214 Z M66.6624047,40.2235145 L75.218688,48.8252845 C73.4259429,50.7094817 71.9184073,52.8804046 70.7368253,55.2151707 C70.4516158,55.2151707 70.1664064,55.2561315 70.084918,55.5018963 C69.881197,56.0343869 68.9848244,55.9115044 68.9848244,55.9115044 L68.8625918,56.1982301 L68.1699403,56.3211125 L68.0477077,56.7307206 L67.2328236,56.853603 L69.2700339,56.7716814 C69.7997086,56.6897598 69.0663128,57.9595449 68.7403592,57.8776233 L67.8032425,57.9595449 L67.4772888,58.2872314 L66.5809163,58.2872314 L66.1734742,58.8606827 L64.8696596,58.7787611 C64.8696596,58.7787611 64.1362639,59.3931732 64.1770081,59.5979772 C64.2584965,59.8027813 64.0547755,60.4171934 63.8510545,60.4171934 C63.6473334,60.4171934 63.2398914,61.0316056 63.362124,61.2364096 C63.4843566,61.4412137 62.9546819,62.1375474 62.9546819,62.1375474 L62.8324493,62.8338812 L62.4250073,62.9567636 L62.4250073,64.8409608 L61.6101231,65.3734513 L61.6101231,66.1926675 L61.2434253,66.6022756 L55.7429575,66.6022756 C55.8651901,61.1135272 57.0875163,55.8295828 59.2877034,50.9962073 C61.1211927,47.1049305 63.6065892,43.4184576 66.6624047,40.2235145 L66.6624047,40.2235145 Z M123.133874,40.346397 C123.419084,40.6331226 123.37834,40.7150442 123.785782,41.0017699 C123.908014,41.0836915 124.030247,41.1656131 124.152479,41.1656131 C124.3562,41.411378 124.600666,41.6571429 124.804387,41.9029077 L124.64141,42.1077118 C124.64141,42.8859671 125.008108,42.6811631 125.374806,42.5992415 C125.497038,42.7221239 125.578527,42.8859671 125.700759,43.0088496 C125.741503,43.4594185 125.741503,44.1147914 126.474899,44.0328698 C126.474899,44.0328698 126.474899,44.0328698 126.515643,44.0328698 C127.371272,45.2207332 128.186156,46.4495575 128.919552,47.6783818 L128.960296,47.7603034 L128.960296,47.7603034 C129.082528,47.9651075 129.204761,48.1699115 129.286249,48.3747155 C129.123273,48.497598 129.041784,48.6614412 129.041784,48.6614412 L127.941691,48.7843236 L127.941691,49.8902655 L127.412016,50.0950695 L127.493504,50.7914033 L128.2269,50.7094817 C128.2269,50.7094817 128.2269,51.5286979 128.430621,51.2010114 C128.634342,50.8733249 130.345599,51.282933 130.182622,52.1021492 C130.141878,52.4298357 131.893879,53.3309735 131.690158,54.4369153 C131.81239,54.4778761 131.934623,54.5188369 132.016111,54.5597977 C132.342065,55.5018963 132.627274,56.4849558 132.87174,57.4270544 L132.749507,57.6728192 C132.749507,57.6728192 132.87174,57.7547408 132.993972,57.8776233 C133.197693,58.7378003 133.401414,59.5979772 133.523647,60.4581542 C133.482903,61.1954488 133.319926,61.9327434 132.912484,62.1375474 C132.0976,62.6290771 132.993972,62.3423515 132.993972,62.3423515 L132.87174,63.8579014 C133.075461,64.5542351 133.401414,64.1855879 133.605135,63.8579014 C133.727368,63.6940582 133.808856,63.5711757 133.931089,63.4482933 C134.053322,64.4723135 134.094066,65.5372946 134.13481,66.6022756 L125.945225,66.6022756 C125.985969,66.5613148 126.067457,66.3974716 126.067457,66.3974716 L126.393411,65.4144121 L127.534249,65.0867257 L127.656481,64.1855879 L127.045318,64.1036662 C127.045318,64.1036662 127.73797,62.874842 128.063923,62.874842 C128.389877,62.874842 130.630808,62.874842 130.834529,62.7519595 C131.03825,62.6290771 131.445692,61.5231353 131.445692,61.3183312 C131.445692,61.1135272 131.975367,61.0316056 132.179088,60.9906448 C132.382809,60.9087231 132.87174,60.3762326 132.993972,60.089507 C133.116205,59.8027813 132.668019,58.0824273 132.382809,58.369153 C132.0976,58.6558786 131.486437,58.7787611 131.486437,58.7787611 L131.282715,59.5570164 L130.956762,59.8437421 C130.956762,59.8437421 131.03825,60.0485461 130.956762,60.5400759 C130.875273,61.0316056 130.26411,61.3183312 130.26411,61.3183312 L129.978901,61.6460177 C129.978901,61.6460177 128.349133,61.7279393 128.145412,61.6460177 C127.534249,61.359292 127.941691,60.5400759 128.349133,60.6219975 C128.756575,60.7039191 128.267644,59.434134 128.267644,59.434134 L128.797319,59.3522124 C128.797319,59.3522124 128.878807,58.1233881 129.082528,58.1233881 C129.286249,58.1233881 129.00104,57.71378 128.756575,57.508976 C128.471365,57.3041719 128.145412,56.6078382 127.860202,56.6897598 C127.574993,56.7716814 126.515643,56.6897598 126.515643,56.6897598 L126.311922,57.0993679 L125.578527,57.2222503 C125.578527,57.2222503 125.660015,57.7547408 125.497038,57.9185841 C125.089596,58.4101138 123.541316,59.434134 124.193224,57.71378 L124.396945,57.3041719 L124.396945,56.6897598 L123.174618,56.6078382 C123.174618,56.6078382 122.563455,56.4030341 122.563455,56.1163085 C122.563455,55.8295828 122.481967,55.5018963 122.481967,55.5018963 L121.05592,53.9044248 L119.344663,53.6996207 L119.222431,53.3719343 L118.203825,53.2490518 C118.040849,53.1671302 117.918616,53.1261694 117.755639,53.0852086 C117.266709,52.3069532 116.777778,51.5696587 116.207359,50.8733249 C116.207359,50.8323641 116.166615,50.7504425 116.166615,50.7094817 C116.125871,50.4637168 115.351731,49.3987358 114.944289,49.357775 C114.781312,49.1939317 114.659079,49.0300885 114.496103,48.8662453 L123.133874,40.346397 L123.133874,40.346397 Z M129.77518,41.206574 C129.693691,41.206574 129.612203,41.2884956 129.612203,41.411378 C129.612203,41.6981037 129.938157,41.8209861 129.815924,42.1896334 C129.693691,42.5173198 129.938157,42.8040455 130.223366,42.8040455 C130.508576,42.8040455 130.712297,42.9269279 130.956762,43.0907712 C131.241971,43.2136536 131.445692,43.4184576 131.649413,43.7051833 L132.342065,43.5003793 C132.342065,43.5003793 132.423553,42.8040455 132.138344,43.0088496 C131.853134,43.2136536 131.649413,42.5173198 131.404948,42.5992415 C131.119739,42.6811631 130.997506,42.3125158 130.712297,41.9848293 C130.427087,41.6571429 130.508576,41.5752212 130.182622,41.3704172 C130.019645,41.2475348 129.897412,41.1656131 129.77518,41.206574 L129.77518,41.206574 Z M95.794512,41.9029077 C98.9318159,41.9848293 101.987631,42.6811631 104.839726,43.8690265 C107.610332,45.05689 110.177217,46.6953224 112.418148,48.8252845 L111.969962,49.2758534 C111.766241,49.0710493 111.032845,48.9072061 111.032845,48.6614412 C111.032845,48.3747155 110.340194,48.0470291 110.421682,48.4566372 C110.50317,48.8662453 109.932752,49.0710493 109.810519,48.9481669 C109.688286,48.8252845 109.280844,49.357775 109.280844,49.357775 C109.280844,49.562579 109.158612,49.8493047 109.566054,49.9312263 C109.973496,50.0131479 110.706891,49.6445006 110.78838,50.0541087 C110.829124,50.1769912 110.829124,50.2998736 110.869868,50.422756 L108.180751,53.1261694 C107.814053,53.1261694 107.488099,53.0852086 107.488099,53.0852086 C107.284378,53.6996207 106.347261,53.003287 106.591727,52.5936789 C106.876936,52.1840708 106.876936,51.8973451 106.876936,51.8973451 L106.550982,51.8154235 L106.14354,52.5936789 C105.206424,52.5936789 104.921214,53.1261694 105.124935,53.4948167 C105.328656,53.8225032 104.839726,53.4128951 104.717493,53.9044248 C104.595261,54.3959545 104.798982,54.3959545 105.206424,54.6007585 C105.613866,54.8055626 105.002703,54.8055626 105.287912,55.1332491 C105.450889,55.3380531 105.858331,55.2970923 105.980564,55.3380531 L105.450889,55.8705436 C105.002703,56.0343869 104.432284,55.9115044 104.432284,55.9115044 C104.432284,56.0343869 104.350795,56.1572693 104.228563,56.1982301 C103.128469,55.2970923 101.946887,54.5597977 100.643073,54.0273072 C100.846794,53.863464 101.213491,53.863464 101.376468,53.4128951 C101.661678,52.6346397 101.78391,51.4058154 101.78391,51.4058154 C101.78391,51.4058154 100.683817,51.3238938 100.643073,51.6925411 C100.561584,52.0202276 99.9096768,52.2250316 99.9096768,52.2250316 C99.9096768,52.2250316 99.3800022,52.4298357 99.5837232,52.7165613 C99.7874442,53.003287 99.1762811,53.1261694 99.1762811,53.1261694 C99.1762811,53.1261694 99.2170253,53.3309735 99.2170253,53.4948167 C98.157676,53.1671302 97.0168382,52.9623262 95.8760004,52.9213654 L95.794512,41.9029077 L95.794512,41.9029077 Z M131.81239,44.2376738 L130.997506,44.3195954 C131.201227,44.6063211 131.608669,44.8111252 131.608669,45.0978508 C131.608669,45.3845765 131.486437,45.5893805 131.893879,45.6303413 C132.301321,45.712263 132.58653,45.5484197 132.708763,45.917067 C132.830995,46.2447535 132.830995,46.8182048 132.790251,47.1049305 C132.708763,47.3916561 132.87174,47.8012642 133.197693,47.8012642 C133.523647,47.8012642 133.605135,47.8831858 133.605135,48.0879899 C133.605135,48.2927939 134.012577,47.3097345 134.012577,47.3097345 C133.686624,47.0230088 133.401414,46.4085967 133.401414,46.4085967 C133.401414,46.4085967 133.075461,45.4255373 133.075461,45.3026549 C133.075461,45.1797724 132.58653,45.0159292 132.382809,44.9749684 C132.138344,44.852086 131.81239,44.2376738 131.81239,44.2376738 L131.81239,44.2376738 Z M125.374806,44.5243995 L124.682154,44.6063211 L124.722898,45.0159292 L125.41555,44.9340076 L125.374806,44.5243995 L125.374806,44.5243995 Z M125.782248,45.0159292 L125.782248,45.3436157 L126.18969,45.3436157 L126.18969,45.0159292 L125.782248,45.0159292 Z M125.252573,45.6713021 C125.252573,45.6713021 124.845131,46.2037927 124.030247,45.9580278 C124.030247,45.9580278 123.908014,47.2687737 123.500572,47.5554994 L122.563455,47.5554994 C122.563455,47.5554994 122.767176,47.8831858 122.970897,48.1289507 C123.174618,48.3337547 123.663549,48.7433628 123.174618,49.0300885 C122.685688,49.3168142 123.256107,49.2348925 123.256107,49.2348925 C123.256107,49.2348925 123.174618,50.6685209 122.563455,50.4637168 C121.952292,50.2589128 121.748571,51.2419722 121.748571,51.487737 C121.748571,51.7744627 124.152479,51.8563843 123.785782,51.487737 C123.582061,51.282933 124.070991,50.7914033 124.070991,50.7914033 C124.070991,50.7914033 125.700759,50.9142857 126.026713,50.9142857 C126.352667,50.9142857 126.637876,50.8323641 126.434155,50.5046776 C126.230434,50.1769912 125.619271,50.217952 125.619271,50.217952 C125.619271,50.217952 124.804387,50.422756 124.070991,50.0131479 C123.337595,49.6035398 124.193224,49.4806574 124.3562,49.4806574 C124.478433,49.4806574 125.089596,48.9891277 124.845131,48.6614412 C124.559921,48.3337547 124.845131,47.6783818 124.845131,47.9651075 C124.845131,48.2518331 125.578527,48.3747155 125.741503,48.1699115 C125.863736,47.9651075 125.741503,47.3506953 125.41555,47.1458913 C125.089596,46.9410872 126.026713,46.8182048 125.741503,46.4495575 C125.374806,46.121871 125.252573,45.6713021 125.252573,45.6713021 L125.252573,45.6713021 Z M126.597132,47.7603034 L126.597132,48.2518331 L127.004574,48.2518331 L127.004574,47.7603034 L126.597132,47.7603034 Z M127.493504,48.0060683 L127.289783,48.4156764 L127.656481,48.6204804 L127.860202,48.2108723 L127.493504,48.0060683 L127.493504,48.0060683 Z M134.094066,48.5795196 C133.931089,48.6204804 134.216298,49.3987358 134.053322,49.5216182 C133.8496,49.6445006 133.727368,49.9312263 133.523647,50.1360303 C133.319926,50.3408344 133.931089,50.6275601 133.931089,50.8323641 C133.931089,51.0371681 134.053322,52.0611884 134.053322,52.0611884 C134.053322,52.0611884 134.542252,52.2659924 134.582996,52.5527181 C134.664485,52.8394437 134.582996,53.3719343 134.786717,53.4538559 C134.990438,53.5357775 135.39788,53.7815424 135.275648,54.068268 C135.153415,54.3549937 135.153415,54.8874842 135.153415,54.8874842 L135.438625,55.5018963 L135.968299,55.8295828 C135.968299,55.8295828 136.17202,54.1911504 135.846067,54.1092288 C135.520113,54.0273072 135.642346,53.0852086 135.642346,53.0852086 C135.642346,53.0852086 135.968299,51.7744627 135.438625,51.7744627 C134.90895,51.7744627 135.316392,51.078129 134.949694,50.8733249 C134.62374,50.6685209 134.827461,49.6854614 134.664485,49.4396966 C134.542252,49.1529709 134.542252,48.8252845 134.175554,48.6204804 C134.13481,48.5795196 134.094066,48.5385588 134.094066,48.5795196 L134.094066,48.5795196 Z M117.633406,49.8902655 L116.940755,49.9721871 L116.981499,50.3817952 L117.674151,50.2998736 L117.633406,49.8902655 L117.633406,49.8902655 Z M107.365867,49.9312263 C107.162146,49.9312263 106.958424,49.9721871 106.958424,49.9721871 L105.858331,50.0950695 L105.776843,50.5865992 L106.510238,50.6685209 C106.510238,50.6685209 106.836192,50.9552465 106.836192,51.1600506 C106.836192,51.3648546 107.325122,51.5696587 107.569588,51.5696587 C107.854797,51.5696587 108.588193,51.0371681 108.588193,51.0371681 C108.588193,51.0371681 108.914146,50.0541087 108.669681,50.1360303 C108.384472,50.217952 107.854797,50.6275601 107.773309,50.217952 C107.814053,49.9721871 107.569588,49.9312263 107.365867,49.9312263 L107.365867,49.9312263 Z M76.3595257,49.9721871 L83.0008313,56.648799 L82.348924,56.6078382 C82.0637146,57.2222503 81.4118073,56.5259166 81.4118073,56.5259166 C81.2895747,56.1163085 80.3117137,56.5259166 80.3117137,56.5259166 C80.3117137,57.3041719 79.0078991,56.1982301 79.0078991,56.1982301 L76.6447352,54.4778761 C75.3001764,53.2490518 73.2629661,54.8055626 73.1814777,55.1742099 C73.2222219,55.7067004 72.7740356,55.7067004 72.3258493,55.6247788 C73.4259429,53.5767383 74.7705017,51.6925411 76.3595257,49.9721871 L76.3595257,49.9721871 Z M103.046981,50.1360303 L102.639539,50.217952 L102.761771,50.8323641 L103.169213,50.7504425 L103.046981,50.1360303 L103.046981,50.1360303 Z M105.247168,50.2589128 L103.739632,50.3408344 L103.739632,50.7504425 L105.247168,50.6685209 L105.247168,50.2589128 Z M92.5349755,50.3817952 L92.5349755,50.7914033 L93.0646502,50.7914033 L93.0646502,50.3817952 L92.5349755,50.3817952 Z M95.998233,50.4637168 L95.9574888,50.8733249 L96.4464193,50.9552465 L96.4871635,50.5456384 L95.998233,50.4637168 L95.998233,50.4637168 Z M96.8946056,50.6685209 L96.8538614,51.078129 L97.3427918,51.1600506 L97.3835361,50.7504425 L96.8946056,50.6685209 L96.8946056,50.6685209 Z M91.3941378,50.7914033 L91.3533936,51.2010114 L91.842324,51.282933 L91.8830682,50.8733249 L91.3941378,50.7914033 Z M102.55805,50.8323641 L102.354329,50.9142857 L102.476562,51.3238938 L102.680283,51.2419722 L102.55805,50.8323641 Z M118.977965,50.9962073 L118.774244,51.487737 L119.140942,51.6515803 L119.344663,51.1600506 L118.977965,50.9962073 Z M113.925684,51.078129 C113.925684,51.078129 114.333126,51.1600506 114.659079,51.2419722 C114.985033,51.6515803 115.310987,52.0611884 115.596196,52.4707965 L114.740568,52.347914 L114.210893,52.2659924 L113.192288,52.1840708 C112.173683,52.8804046 111.969962,53.6996207 111.969962,53.6996207 C111.521776,54.6007585 110.50317,53.6586599 110.50317,53.003287 L112.295915,51.2010114 C112.418148,51.2010114 112.499637,51.2010114 112.621869,51.2010114 C113.029311,51.2010114 113.925684,51.078129 113.925684,51.078129 L113.925684,51.078129 Z M97.7909781,51.2010114 L97.7909781,51.6106195 L98.3206528,51.6106195 L98.3206528,51.2010114 C98.361397,51.2010114 97.7909781,51.2010114 97.7909781,51.2010114 Z M90.9459515,51.282933 L90.8644631,51.6925411 L91.3941378,51.8154235 L91.4756262,51.4058154 C91.5163704,51.4467762 90.9459515,51.282933 90.9459515,51.282933 Z M90.7829747,51.8563843 L90.3755326,51.9383059 L90.457021,52.347914 L90.8644631,52.2659924 L90.7829747,51.8563843 Z M98.8095833,51.8563843 L98.4021412,51.8563843 L98.4021412,52.347914 L98.8095833,52.347914 L98.8095833,51.8563843 L98.8095833,51.8563843 Z M120.118803,52.0611884 C119.874338,52.0611884 119.548384,52.1021492 119.385407,52.14311 C119.059454,52.2250316 119.100198,52.4707965 119.385407,52.8394437 L120.200291,52.7165613 C120.200291,52.7165613 120.811455,52.4298357 120.689222,52.2250316 C120.648478,52.0611884 120.404012,52.0611884 120.118803,52.0611884 L120.118803,52.0611884 Z M115.596196,52.4707965 C115.840661,52.8394437 116.085127,53.208091 116.329592,53.5357775 C116.248103,53.6996207 116.207359,53.9453856 116.288848,54.1911504 C116.492569,55.2151707 116.818522,55.6247788 116.166615,55.6247788 C115.473964,55.6247788 115.351731,55.0922882 115.351731,55.0922882 C115.351731,55.0922882 114.822056,54.8874842 114.822056,55.1742099 C114.822056,55.4609355 114.618335,55.993426 114.822056,56.2801517 C115.025777,56.5668774 114.536847,56.9764855 114.333126,56.7716814 C114.129405,56.5668774 113.59973,55.9524652 113.721963,55.7476612 C113.844195,55.5428571 112.784846,54.2321113 113.844195,54.0273072 C114.944289,53.8225032 113.762707,53.208091 114.170149,53.0442478 L114.699824,52.7575221 L115.229498,52.7575221 L115.596196,52.4707965 L115.596196,52.4707965 Z M2.57176855,52.7165613 C1.47167499,55.0103666 1.06423292,57.5908976 0.49381404,60.089507 C-0.728512142,66.5613148 0.49381404,73.4017699 2.2458149,79.382048 C4.44600203,86.8369153 11.6577265,92.1208597 15.3654493,98.9613148 L15.8543797,99.3709229 C15.324705,95.6844501 15.0394956,91.6702908 16.098845,88.1476612 C17.687869,82.4950695 19.6843351,77.0063211 20.7029402,71.1489254 C21.5178244,66.6022756 22.4549411,61.4821745 21.9252664,57.0993679 C21.3141033,59.4750948 20.7029402,61.8098609 19.3991257,63.8579014 C14.4690767,71.5175727 9.41679517,80.5289507 12.8800527,90.2776233 C12.7985643,90.4005057 12.6763317,90.5233881 12.554099,90.4414665 C11.168796,87.2055626 10.8428424,83.5600506 9.94646985,80.1193426 C7.54256169,70.9441214 0.534558246,63.2844501 2.57176855,52.7165613 L2.57176855,52.7165613 Z M187.387487,52.7165613 C189.424698,63.2844501 182.457438,70.9441214 180.05353,80.0783818 C179.157158,83.5190898 178.831204,87.2055626 177.445901,90.4005057 C177.323668,90.4824273 177.201436,90.3185841 177.119947,90.2366625 C180.583205,80.4879899 175.530923,71.5175727 170.600874,63.8169406 C169.29706,61.8098609 168.685897,59.434134 168.074734,57.0584071 C167.545059,61.4821745 168.482176,66.5613148 169.29706,71.1079646 C170.356409,76.9653603 172.312131,82.4541087 173.901155,88.1067004 C174.960504,91.62933 174.675295,95.6025284 174.14562,99.3299621 L174.634551,98.920354 C178.301529,92.1208597 185.553998,86.7959545 187.754185,79.3410872 C189.506186,73.4017699 190.728512,66.520354 189.506186,60.0485461 C188.895023,57.6318584 188.446837,55.0103666 187.387487,52.7165613 L187.387487,52.7165613 Z M94.8573953,54.5188369 L94.9796279,56.1572693 L94.2462322,55.9115044 L93.7573017,55.9115044 L93.5535807,55.5018963 L93.1461386,55.4199747 L93.1461386,56.9355247 L93.5535807,57.2632111 L93.8795343,57.5908976 L94.5721858,57.6728192 L94.6944185,58.4920354 L96.4056751,58.573957 L96.6093961,58.9016435 L97.6280013,58.9835651 L99.5837232,60.9906448 L99.4614906,61.6050569 L99.1355369,61.8098609 C99.2577695,62.3013906 98.2391644,62.014665 98.2391644,62.014665 L98.2391644,62.4242731 L98.7280949,62.5061947 L99.2170253,62.7929204 L99.9096768,61.6050569 C100.643073,61.1135272 101.00977,61.8098609 101.050515,62.219469 C101.132003,62.6290771 100.724561,62.5471555 100.724561,62.5471555 L100.724561,63.5302149 L101.132003,63.6530973 C101.824655,64.4723135 100.846794,64.9638432 100.846794,64.9638432 L100.643073,65.660177 C100.439352,66.2745891 99.7059558,66.1517067 99.7059558,66.1517067 L99.4207464,66.5613148 L98.6058622,66.7661188 L100.194886,66.9709229 C100.357863,66.3974716 100.765305,66.2745891 100.969026,66.5613148 C101.172747,66.8480405 101.172747,67.3395702 101.172747,67.3395702 L101.580189,67.4214918 L101.498701,68.1997472 L101.906143,68.3226296 L101.906143,70.5345133 L102.395073,71.0670038 C103.209958,70.7393173 103.209958,71.2718078 102.802515,71.5585335 C102.395073,71.8452592 102.680283,73.0740834 102.680283,73.0740834 L102.354329,73.4017699 L102.354329,73.9752212 L101.946887,74.2619469 L101.946887,75.0402023 C101.254236,74.7125158 100.439352,74.8353982 100.23563,75.0402023 C99.6244674,74.6305942 98.3206528,74.7534766 98.3206528,75.1221239 C98.7280949,75.6546144 97.8317223,75.8184576 97.8317223,75.8184576 L97.3427918,76.3509482 C97.6687455,77.0472819 97.0168382,77.1292035 97.0168382,77.1292035 L97.0168382,78.4399494 L96.2019541,79.2182048 L96.2426983,80.4470291 C95.8352562,80.4879899 95.38707,80.5289507 94.9796279,80.5289507 C91.8015798,80.5289507 88.8272528,79.382048 86.4640888,77.2930468 C86.504833,77.252086 86.5455772,77.252086 86.5863214,77.1701643 C86.9122751,76.6376738 87.482694,76.5557522 87.482694,76.5557522 L87.686415,76.0642225 L89.5199043,76.1461441 C89.6421369,75.3678887 90.5385094,75.6546144 90.5385094,76.0232617 C90.5385094,76.3509482 91.2311609,76.1051833 91.2311609,76.1051833 L91.7200914,75.3269279 L92.4534871,75.3269279 L92.5349755,74.5077118 L92.8609292,74.3029077 L92.8609292,73.0740834 C93.9610227,72.746397 93.7980459,71.6814159 93.7980459,71.6814159 L94.0832554,71.3537295 L93.9610227,70.8621997 C93.4313481,70.6573957 93.6758133,70.165866 94.0425112,70.2887484 C94.3684648,70.4116308 93.5535807,69.6743363 93.5535807,69.6743363 C93.1461386,70.0020228 92.820185,69.2647282 92.820185,69.2647282 L91.8015798,69.2647282 L91.8015798,68.2816688 L91.6793472,67.380531 L90.6607421,66.8890013 L89.9273463,67.585335 L89.8051137,68.5683944 L89.8051137,69.1828066 L89.1124622,69.305689 L88.9902296,71.1898862 L88.4605549,71.3946903 L88.5420433,72.091024 L87.8086476,72.2958281 L87.0752519,72.5006321 L86.7900425,73.3198483 L86.2603678,73.6475348 L85.9751584,74.4667509 L85.6492047,76.4328698 C84.712088,75.4088496 83.8972038,74.3029077 83.326785,73.0740834 C83.4490176,72.5825537 83.4490176,72.1319848 83.4490176,72.1319848 C82.8378545,71.8452592 83.1638081,70.9031606 83.8564596,71.7223767 C84.5491111,72.5415929 83.4490176,70.0429836 83.4490176,70.0429836 L82.9193429,69.5514539 L82.2266914,69.4695322 C82.1044588,68.8141593 82.0637146,68.1178255 82.0637146,67.4214918 C82.0637146,67.1347661 82.0637146,66.8480405 82.1044588,66.5613148 C82.3081798,66.3565107 82.5119008,66.4793932 82.5119008,66.4793932 L82.9193429,66.8070796 L83.530506,67.2986094 L83.6119944,67.7082174 L83.2045523,67.9130215 L83.1230639,68.4864728 L83.326785,69.2647282 L83.8564596,69.2647282 C84.0601807,68.1587863 85.4862279,68.1587863 85.8936699,68.8551201 L86.301112,67.8720607 C85.3639953,67.380531 86.301112,66.6432364 86.5455772,66.9709229 C86.8307867,67.2986094 87.4419498,66.0697851 87.4419498,66.0697851 C87.4419498,66.0697851 87.9308802,66.6841972 87.4419498,65.864981 C86.9530193,65.0457649 87.7679034,64.6361568 87.7679034,64.6361568 C87.6456708,63.8169406 88.664276,63.939823 88.664276,63.939823 L88.7457644,62.8338812 L87.8086476,62.7519595 C87.6049266,63.735019 86.7900425,62.874842 87.1974845,62.6700379 C87.6049266,62.4652339 88.0123687,62.0556258 88.0123687,62.0556258 L88.0123687,61.4412137 L88.4198107,61.3183312 L88.5012991,60.6219975 L89.5199043,60.6219975 L90.4162768,60.2123894 L90.6199978,59.8847029 L91.5571146,59.8027813 L92.9016734,58.573957 L92.7794408,58.0414665 C91.9645566,58.0414665 92.7794408,57.4270544 92.7794408,57.4270544 L92.9016734,56.4030341 L92.1682777,56.4030341 L92.0460451,54.928445 C92.9424176,54.6417193 93.8795343,54.5188369 94.8573953,54.5188369 L94.8573953,54.5188369 Z M136.090532,58.5329962 L136.009043,59.0654867 L136.416485,59.1064475 L136.497974,58.5329962 L136.090532,58.5329962 L136.090532,58.5329962 Z M135.846067,60.3762326 L135.642346,60.7858407 L136.009043,60.9906448 L136.212764,60.5810367 L135.846067,60.3762326 Z M65.5623111,63.1206068 C66.2142184,63.079646 66.6624047,63.4482933 66.6624047,63.4482933 L67.5995214,63.3663717 C67.8439867,63.5302149 68.0069635,63.6940582 68.0884519,63.8988622 C68.0069635,64.5542351 67.9254751,65.1686473 67.9254751,65.8240202 C67.8439867,65.9878635 67.7624982,66.1107459 67.7624982,66.1107459 C67.6810098,66.2336283 67.6402656,66.4384324 67.5995214,66.6432364 L65.0326364,66.6432364 L65.0326364,66.6022756 L64.2992407,66.520354 C63.4843566,66.0288243 63.8917987,64.2265487 63.8917987,64.2265487 C64.4622176,63.4482933 65.0733806,63.1615676 65.5623111,63.1206068 L65.5623111,63.1206068 Z M89.071718,64.4313527 L88.9494854,64.7590392 L88.6235318,64.7590392 L88.5420433,65.3324905 L88.9494854,65.3324905 L89.0309738,65.7420986 L88.7457644,66.0288243 L88.6235318,66.3565107 L88.0938571,66.4793932 L86.8715309,67.6672566 L86.7900425,68.1997472 L86.4640888,68.6912769 L86.0566468,69.7152971 L84.6305996,69.7972187 L84.3453901,71.026043 L84.5491111,72.0500632 L85.7714373,72.5415929 L85.8936699,71.8452592 L86.301112,71.6404551 L86.3826004,70.9441214 L86.6678099,70.4525917 L87.0752519,69.9610619 L87.1974845,69.3876106 L87.890136,68.9780025 L88.7050202,68.8551201 L89.0309738,68.445512 L89.1532064,67.6262958 L89.1939506,67.0118837 L89.4791601,66.6022756 L90.2940442,66.2745891 L90.2940442,64.9638432 L89.8866021,64.9638432 L89.8051137,64.4723135 L89.071718,64.4313527 L89.071718,64.4313527 Z M131.567925,64.8409608 L131.486437,65.2505689 L132.219832,65.3734513 L132.301321,64.9638432 L131.567925,64.8409608 Z M129.897412,65.4144121 L129.693691,65.5372946 L129.204761,65.8240202 L128.756575,65.5372946 L128.552854,65.864981 L129.082528,66.1926675 L129.204761,66.2745891 L129.286249,66.2336283 L129.693691,65.9878635 L129.734436,66.1107459 L130.101134,65.9469027 L129.978901,65.6192162 L129.897412,65.4144121 L129.897412,65.4144121 Z M135.805322,68.3226296 L146.765514,68.3226296 C146.643281,75.9003793 144.932025,83.0685209 141.916953,89.5403287 L141.916953,89.5403287 C139.472301,94.8242731 136.17202,99.6166877 132.179088,103.753729 L131.893879,103.467004 C131.853134,102.688748 131.81239,101.705689 131.81239,101.705689 L131.486437,101.378003 L131.404948,99.6576485 C131.690158,98.7565107 130.101134,97.4457649 129.978901,97.7324905 C129.856668,98.0192162 128.960296,97.8144121 128.960296,98.060177 C128.960296,98.3469027 128.430621,99.6986094 128.675086,100.190139 C128.675086,100.2311 128.675086,100.2311 128.715831,100.272061 L124.437689,95.9711757 C127.778714,92.489507 130.386343,88.5572693 132.301321,84.2563843 C134.460764,79.2591656 135.68309,73.8932996 135.805322,68.3226296 L135.805322,68.3226296 Z M148.395282,68.3226296 L160.496311,68.3226296 C160.374079,78.2761062 158.051659,87.6970923 153.977238,96.135019 L153.977238,96.135019 C150.880679,102.565866 146.765514,108.423262 141.876209,113.461441 L133.319926,104.859671 C137.516579,100.517826 140.857604,95.6025284 143.343,90.2776233 L143.343,90.2776233 C146.521049,83.478129 148.273049,76.0232617 148.395282,68.3226296 L148.395282,68.3226296 Z M124.682154,68.3226296 L134.175554,68.3226296 C134.053322,73.6884956 132.87174,78.8085967 130.834529,83.4371681 C129.00104,87.6151707 126.434155,91.4245259 123.337595,94.7013906 C123.215363,93.3087231 122.889409,91.7931732 122.889409,91.7931732 L122.359734,91.5064475 L122.481967,89.8270544 L121.748571,89.8270544 L120.526245,91.4245259 L120.404012,91.8750948 L119.711361,91.1787611 L120.078059,90.8101138 L119.99657,89.9908976 L120.485501,89.5812895 L120.485501,88.8849558 L120.892943,88.7620733 L120.974431,87.2465234 L121.300385,87.1646018 L121.300385,83.8467762 L120.28178,82.8637168 C120.200291,83.1914033 119.140942,83.1914033 119.140942,83.1914033 C119.140942,83.1914033 118.855733,83.682933 118.652012,83.682933 C118.448291,83.682933 118.937221,84.2973451 118.774244,84.7069532 C118.652012,85.1165613 118.081593,85.1165613 118.081593,85.1165613 L117.062988,85.403287 L116.777778,85.7309735 L115.718429,85.7309735 L115.63694,85.1165613 C115.759173,84.9936789 115.840661,84.8298357 115.962894,84.7069532 L116.818522,84.4611884 L117.511174,84.1335019 L117.837127,83.4371681 C117.918616,82.7408344 118.7335,82.822756 118.7335,82.822756 C118.7335,82.822756 120.28178,81.5120101 120.363268,80.897598 C120.444757,80.2831858 120.974431,78.5628319 121.911548,78.5628319 L123.663549,78.5628319 C124.3562,78.2761062 124.152479,77.3749684 124.152479,77.3749684 L125.048852,77.252086 L125.171085,77.7436157 C125.171085,77.7436157 126.393411,77.8664981 126.515643,77.6616941 C126.637876,77.45689 126.923085,76.9653603 127.249039,77.1701643 C127.574993,77.3749684 128.675086,76.6786346 128.675086,76.6786346 C128.756575,76.1871049 130.427087,76.391909 130.427087,76.391909 L130.630808,75.7774968 C130.630808,75.7774968 129.48997,74.1800253 129.286249,74.1800253 C129.082528,74.1800253 127.982435,73.1969659 127.860202,73.5656131 C126.760109,73.2788875 126.841597,71.7633375 126.841597,71.7633375 L126.434155,70.7802781 C126.434155,70.2068268 125.41555,69.0599241 125.211829,69.1828066 C124.763643,68.9370417 124.64141,68.6093552 124.682154,68.3226296 L124.682154,68.3226296 Z M55.7837017,68.3226296 L60.5507738,68.3226296 L60.591518,68.6912769 L59.5729128,69.7972187 L59.6951454,70.9031606 L59.0839824,71.1079646 L58.9617497,71.5994943 L58.6765403,73.0331226 L59.3691918,73.1150442 C59.6951454,72.9921618 59.6544012,74.016182 59.3691918,74.1390645 C59.0839824,74.2619469 58.3505866,74.5486726 58.7580287,74.8353982 C59.1654708,75.1221239 57.6579351,75.0402023 57.6579351,74.6305942 C57.6579351,74.2209861 56.843051,73.8523388 56.63933,74.016182 C56.5170974,74.0981037 56.3541206,73.8932996 56.2318879,73.6884956 C55.9874227,71.9271808 55.8244459,70.1249052 55.7837017,68.3226296 L55.7837017,68.3226296 Z M62.7917051,68.3226296 L63.1176588,68.3226296 C63.2806356,68.3635904 63.4436124,68.445512 63.4436124,68.445512 L64.3807291,68.5274336 L64.4622176,68.3635904 L67.6810098,68.3635904 L67.9662193,70.1249052 L67.0698467,70.9031606 C66.336451,71.3127686 66.336451,72.2958281 67.1513352,72.5006321 C67.6810098,72.5825537 67.4772888,73.8932996 66.6624047,72.9921618 C65.4400785,72.9921618 67.3550562,74.0981037 66.7846373,73.811378 C68.0069635,74.4257901 67.721754,73.2788875 67.721754,73.2788875 L68.3329171,72.7873578 C68.5773824,74.1390645 68.9440802,75.4907712 69.3922665,76.7605563 L69.3922665,76.7605563 C70.6553369,80.2831858 72.6110588,83.478129 75.1779438,86.263464 L66.6216605,94.8652339 C66.0512416,94.2917826 65.5215669,93.6773704 65.0326364,93.0629583 C65.1548691,92.6533502 65.3993343,92.2027813 65.3993343,92.2027813 C66.2957068,91.62933 65.1956133,90.769153 65.1956133,90.769153 C65.3178459,89.9499368 64.7066828,88.9668774 64.7066828,88.9668774 C63.4843566,88.1476612 63.8103103,86.5501896 63.8103103,86.5501896 L63.8103103,85.4442478 C62.7917051,84.4611884 64.2177523,84.3383059 64.2177523,84.3383059 C64.7066828,83.5190898 63.8917987,82.9046776 63.8917987,82.9046776 L63.8103103,82.0035398 L62.7102167,81.8806574 L62.5879841,78.6447535 L60.1433317,75.1221239 C59.6544012,74.9992415 60.0210991,74.1390645 60.0210991,74.1390645 C60.6322622,73.811378 59.8988665,72.951201 59.8988665,72.951201 L59.8173781,71.4356511 L61.2434253,71.3127686 L61.5693789,70.7802781 L62.2620304,70.7802781 L62.180542,68.9780025 C62.384263,68.4864728 62.5879841,68.3635904 62.7917051,68.3226296 L62.7917051,68.3226296 Z M79.7005506,68.3226296 L80.4746905,68.3226296 C80.5154347,68.8141593 80.556179,69.305689 80.6376674,69.7562579 L80.2302253,69.8791403 L80.1079927,69.5924147 L79.9042717,70.37067 L78.6819455,70.37067 L78.6004571,69.5514539 L79.3338528,69.3466498 L79.6190622,68.9370417 L79.7005506,68.3226296 L79.7005506,68.3226296 Z M99.7874442,69.2647282 C99.6652116,69.2647282 99.542979,69.3466498 99.4614906,69.5924147 L99.4614906,70.4935525 C99.4614906,70.4935525 100.398607,72.0091024 100.765305,72.2139064 C101.091259,72.4187105 101.661678,71.9681416 101.29498,71.7223767 C100.276375,71.026043 100.357863,70.1249052 100.072654,69.510493 C99.9911652,69.3876106 99.9096768,69.2647282 99.7874442,69.2647282 L99.7874442,69.2647282 Z M64.3807291,69.8791403 L64.4622176,70.37067 L64.7881712,70.37067 C65.3178459,71.3537295 64.8696596,73.6884956 64.8696596,73.6884956 C64.8696596,73.6884956 64.0547755,73.7704172 63.9325429,73.3608091 C63.8103103,72.951201 63.4436124,74.2619469 63.7288218,74.4667509 C64.0140313,74.671555 64.951148,74.4667509 65.0326364,75.2450063 C65.1141249,76.0232617 65.6437995,74.7534766 65.6437995,74.7534766 L65.6437995,70.0429836 L64.3807291,69.8791403 L64.3807291,69.8791403 Z M96.9353498,71.2718078 L95.7130236,72.1729456 C96.3241867,72.2548673 96.4056751,72.8692794 96.4464193,73.1560051 C96.6093961,73.7704172 96.5686519,72.1729456 96.8538614,72.2548673 C97.1390708,72.2958281 96.9353498,71.2718078 96.9353498,71.2718078 L96.9353498,71.2718078 Z M69.8404528,71.8042984 C70.4108716,72.0091024 71.0627789,72.951201 71.0627789,73.1150442 C71.0627789,73.3198483 73.7518965,73.1969659 73.7518965,73.1969659 C74.4852922,73.6884956 74.7705017,74.9173198 74.7705017,74.9173198 C75.5038974,73.9342604 77.0929214,74.8353982 75.9113395,75.4088496 C77.011433,76.1051833 77.011433,76.7195954 77.011433,76.7195954 C77.9078056,76.4328698 77.9078056,77.1292035 77.9078056,77.3340076 C77.9078056,77.5388116 78.193015,76.3099874 78.193015,76.3099874 C77.1744098,75.531732 79.5375738,75.2859671 78.8856665,76.6376738 L78.4782244,77.252086 L79.1708759,77.7845765 L79.2523644,79.382048 C80.7599,79.2591656 80.3524579,77.3749684 80.3524579,77.3749684 L81.0451094,77.252086 C81.0451094,76.6376738 81.5340399,76.9653603 81.5340399,76.9653603 C81.2080862,75.3269279 81.8599935,74.6305942 82.2674356,74.3848293 C82.7971103,75.4088496 83.4490176,76.3509482 84.2231575,77.2111252 L76.4410141,85.0346397 C74.037106,82.4541087 72.2443609,79.5049305 71.0627789,76.2690265 C70.4923601,74.8353982 70.1256622,73.3608091 69.8404528,71.8042984 L69.8404528,71.8042984 Z M131.201227,73.4427307 C130.630808,73.4017699 129.938157,73.811378 130.141878,74.0981037 C130.54932,74.6305942 131.241971,74.3848293 131.486437,74.4257901 C131.771646,74.5077118 132.016111,74.6305942 131.771646,73.811378 C131.690158,73.5656131 131.445692,73.4427307 131.201227,73.4427307 L131.201227,73.4427307 Z M66.7846373,74.3848293 C66.6216605,74.3848293 66.4994279,74.5077118 66.4994279,74.671555 L66.4994279,74.671555 C66.4994279,74.8353982 66.6216605,74.9582807 66.7846373,74.9582807 C66.9476141,74.9582807 67.0698467,74.8353982 67.0698467,74.671555 C67.110591,74.5486726 66.9476141,74.3848293 66.7846373,74.3848293 L66.7846373,74.3848293 Z M66.0512416,75.3269279 L65.0326364,76.0232617 L64.3399849,75.6136536 L64.3399849,77.252086 L65.4400785,78.6857143 L65.8475206,77.7026549 L65.9697532,77.0882427 L65.4808227,76.8834387 L65.5623111,75.8594185 L65.9697532,75.7774968 L66.0512416,75.3269279 L66.0512416,75.3269279 Z M91.1089283,77.0472819 L90.4977652,77.1292035 L90.5792536,78.112263 L90.9866957,78.4399494 L91.7200914,78.6447535 C91.7200914,78.6447535 92.7386966,78.3580278 92.820185,77.5388116 L91.2719051,77.45689 L91.1089283,77.0472819 L91.1089283,77.0472819 Z M99.6652116,77.5797724 C100.23563,77.5797724 100.113398,78.9724399 100.072654,79.4230088 C99.6652116,79.5868521 99.2577695,79.7506953 98.8503275,79.8735777 L98.8503275,78.3580278 L99.542979,77.5797724 C99.5837232,77.5797724 99.6244674,77.5797724 99.6652116,77.5797724 L99.6652116,77.5797724 Z M85.3232511,78.3989886 C87.686415,80.5289507 90.6199978,81.7987358 93.7573017,82.0445006 L93.7573017,82.0854614 C93.7573017,82.0854614 93.5128365,82.6998736 93.7980459,82.822756 C94.0832554,82.9046776 94.001767,82.9865992 94.1647438,83.1504425 L94.001767,83.5190898 C93.7573017,83.1914033 93.5943249,83.7648546 93.7573017,83.9286979 C93.9202785,84.0925411 93.3906039,83.9696587 93.3906039,84.1744627 C93.3906039,84.3792668 93.227627,84.5021492 93.3906039,84.5840708 C93.5535807,84.7069532 93.3498597,84.747914 93.1461386,84.9117573 C92.9424176,85.0756005 94.001767,85.1165613 94.001767,85.1165613 C94.001767,85.1165613 93.7980459,84.7069532 94.0425112,84.7069532 C94.0832554,84.7069532 94.1239996,84.7069532 94.1647438,84.7069532 L94.1647438,85.403287 C94.0832554,85.3623262 94.001767,85.3623262 93.8795343,85.3213654 L93.8795343,85.8128951 L93.3498597,85.8948167 L93.8387901,86.4273072 L94.205488,86.468268 L94.205488,87.6151707 L94.205488,87.6970923 C94.205488,88.5982301 91.9645566,87.983818 91.7608356,87.7790139 L91.6793472,89.0078382 L91.2719051,89.0897598 L91.3533936,89.908976 L91.2719051,91.0968394 L92.0053009,90.973957 L92.0053009,91.4654867 L93.8387901,91.5474083 L94.205488,91.1787611 L94.205488,92.4485461 L94.205488,92.5304678 L92.9831618,92.6533502 L92.4534871,92.9400759 L92.2497661,92.5304678 L91.7200914,92.5304678 L91.3941378,92.9810367 C89.8051137,92.7352718 88.2160897,92.3666245 86.7085541,91.834134 L86.7085541,91.834134 C83.3675292,90.6872314 80.2709695,88.8030341 77.6225961,86.3044248 L85.3232511,78.3989886 L85.3232511,78.3989886 Z M20.7436845,79.0543616 C21.640057,85.0756005 19.276893,90.4005057 18.7472184,96.135019 C18.2990321,100.845512 19.1139162,105.433123 20.9474055,109.36536 C21.4770802,110.553224 22.4549411,111.577244 22.7401505,112.806068 C20.9881497,111.208597 19.7250793,109.201517 18.5434973,107.235398 C12.8800527,98.0192162 1.02348872,92.0389381 0.208604597,80.8156764 C-0.198837463,85.8128951 0.249348803,91.0968394 1.87911705,95.5206068 C4.16079259,101.664728 8.60191105,106.416182 13.6949368,110.430341 C18.9509394,114.608344 25.2255471,117.844248 30.0333634,121.530721 C29.0962467,119.114033 27.5479669,116.902149 26.9368038,114.40354 C24.0439651,102.893552 25.6329892,89.6222503 20.7436845,79.0543616 L20.7436845,79.0543616 Z M169.215571,79.0543616 C164.326267,89.6222503 165.915291,102.893552 163.10394,114.321618 C162.492777,116.861188 160.944498,119.073072 160.007381,121.448799 C164.815197,117.762326 171.089805,114.526422 176.345807,110.34842 C181.438833,106.33426 185.839207,101.582807 188.161627,95.4386852 C189.83214,91.0149178 190.239582,85.7309735 189.83214,80.7337547 C189.017255,91.9570164 177.160692,97.9372946 171.497247,107.153477 C170.274921,109.119595 169.052595,111.167636 167.300594,112.724147 C167.585803,111.536283 168.563664,110.471302 169.093339,109.283439 C170.926828,105.31024 171.741712,100.76359 171.293526,96.0530973 C170.682363,90.4005057 168.278455,85.0756005 169.215571,79.0543616 L169.215571,79.0543616 Z M110.177217,79.3001264 C110.340194,79.3001264 110.462426,79.382048 110.421682,79.6278129 C110.217961,80.242225 110.421682,80.5289507 110.421682,80.5289507 C111.318055,79.7097345 112.05145,80.6108723 111.969962,80.8156764 C111.888473,81.0204804 112.458892,81.2252845 112.784846,81.0204804 C113.1108,80.8156764 113.518242,81.6348925 113.396009,82.0445006 C113.273776,82.4541087 112.05145,82.3721871 111.969962,81.962579 C111.888473,81.5529709 111.684752,81.6758534 111.56252,81.8806574 C111.440287,82.0445006 110.992101,82.1673831 110.666147,82.0854614 L110.380938,81.7987358 C110.421682,81.7168142 110.462426,81.6348925 110.380938,81.5529709 C110.299449,81.4710493 110.177217,81.4710493 110.01424,81.4710493 L109.403077,80.8566372 C109.403077,80.4470291 109.525309,79.8735777 109.484565,79.7097345 C109.443821,79.5049305 109.892007,79.3001264 110.177217,79.3001264 L110.177217,79.3001264 Z M66.13273,79.5458913 L65.6437995,79.6278129 L65.5623111,80.2012642 L66.0919858,80.2831858 L66.13273,79.5458913 L66.13273,79.5458913 Z M150.79919,80.1603034 C150.513981,80.1603034 150.188027,80.3241466 149.984306,80.4470291 L150.228771,80.7747155 C150.473237,80.6108723 150.839934,80.5289507 150.880679,80.5699115 C150.880679,80.5699115 150.880679,80.5699115 150.880679,80.5289507 L151.288121,80.4470291 C151.247376,80.3241466 151.206632,80.2012642 151.0844,80.1603034 C150.962167,80.1603034 150.880679,80.1603034 150.79919,80.1603034 L150.79919,80.1603034 Z M66.336451,80.8566372 C66.1734742,80.8566372 66.0512416,80.9795196 66.0512416,81.1433628 C66.0512416,81.3072061 66.1734742,81.4300885 66.336451,81.4300885 C66.4994279,81.4300885 66.6216605,81.3072061 66.6216605,81.1433628 C66.6216605,80.9795196 66.4586837,80.8566372 66.336451,80.8566372 Z M100.072654,81.1843236 C100.072654,81.3481669 100.154142,81.5529709 100.154142,81.5529709 L100.480096,81.6758534 L99.8689326,82.1673831 L99.3392579,82.7817952 L98.6466064,82.5769912 L97.8317223,82.4950695 L97.5465129,82.0035398 L97.0575824,81.9216182 L96.976094,82.9046776 L96.6501403,83.3142857 L95.8352562,84.1335019 C96.6908846,84.1335019 96.1204657,84.5840708 95.7130236,84.7888748 L95.7130236,82.0035398 C96.5686519,81.962579 97.4650245,81.8396966 98.2799086,81.6348925 C98.361397,81.7168142 98.4021412,81.757775 98.4021412,81.757775 L99.0133043,81.757775 L99.0540485,81.4300885 C99.4614906,81.3891277 99.7874442,81.3072061 100.072654,81.1843236 L100.072654,81.1843236 Z M66.7846373,82.2902655 C66.6216605,82.2902655 66.4994279,82.4131479 66.4994279,82.5769912 L66.4994279,82.5769912 C66.4994279,82.7408344 66.6216605,82.8637168 66.7846373,82.8637168 C66.9476141,82.8637168 67.0698467,82.7408344 67.0698467,82.5769912 C67.0698467,82.4131479 66.9476141,82.2902655 66.7846373,82.2902655 L66.7846373,82.2902655 Z M92.3719987,82.4950695 C92.0460451,82.4950695 91.7608356,83.5600506 91.5978588,83.8058154 C91.5978588,83.8058154 91.7608356,84.3792668 92.0460451,84.3383059 C92.3312545,84.2973451 92.5349755,84.1335019 92.820185,84.0925411 C93.0646502,84.0515803 93.1868828,83.6419722 93.2683712,83.1914033 C93.3498597,82.7817952 93.1868828,82.5769912 93.1868828,82.5769912 C93.1868828,82.5769912 92.9424176,82.9865992 92.5349755,82.5769912 C92.4942313,82.5360303 92.4534871,82.4950695 92.3719987,82.4950695 L92.3719987,82.4950695 Z M65.5215669,83.0685209 L64.951148,83.1504425 L64.951148,83.6419722 L65.5215669,83.5600506 L65.5215669,83.0685209 L65.5215669,83.0685209 Z M106.306517,83.0685209 L106.795448,83.0685209 L106.876936,83.3962073 L108.954891,83.6010114 L109.036379,83.6010114 C109.851263,84.0925411 109.443821,84.7069532 109.158612,84.8298357 C108.873402,84.9527181 108.425216,84.9527181 108.425216,84.9527181 L108.302983,85.2394437 L106.550982,85.3623262 L106.42875,86.0586599 C105.532377,85.9357775 105.206424,86.8778761 105.410145,87.3694058 C105.613866,87.8609355 105.410145,88.2705436 105.410145,88.2705436 L106.14354,88.5982301 L107.080657,88.3115044 C107.20289,87.6151707 107.814053,87.4922882 108.384472,87.0826802 C108.914146,86.6730721 109.810519,87.8609355 109.525309,88.393426 C109.484565,88.4753477 109.484565,88.5163085 109.443821,88.5572693 C108.425216,89.253603 107.325122,89.908976 106.184285,90.4824273 L106.184285,90.4824273 C104.391539,91.3426043 102.517306,92.0389381 100.52084,92.4485461 C100.480096,92.4075853 100.439352,92.4075853 100.439352,92.4075853 L99.7059558,92.2027813 L99.6244674,91.1787611 C99.5022348,90.4824273 98.1984202,90.4824273 98.2799086,90.973957 C98.361397,91.4654867 95.8760004,91.1787611 95.8352562,91.1787611 L95.8352562,89.2945638 L96.5279077,88.5572693 L98.0761876,88.2295828 C98.1984202,87.5332491 98.8910717,88.3524652 98.8910717,88.3524652 C99.5837232,88.2705436 99.7059558,88.7620733 99.7059558,88.7620733 L100.602328,88.8849558 C101.335724,89.0897598 100.887538,89.1716814 100.928282,89.4584071 C101.00977,89.8680152 101.335724,89.7451327 101.335724,89.7451327 L101.457957,88.8439949 L101.865399,88.9259166 L101.457957,88.4343869 L100.724561,88.1067004 L99.9096768,87.7790139 C99.3800022,87.0007585 100.031909,87.1646018 100.602328,87.2465234 L101.498701,87.2465234 C101.498701,87.2465234 102.517306,88.6391909 102.517306,88.9668774 C102.517306,89.2945638 103.006236,89.3764855 103.006236,89.3764855 L103.6174,89.2945638 L103.821121,89.7860936 L104.432284,89.7860936 L104.636005,90.1957016 L105.858331,90.1957016 L105.939819,89.5812895 L104.798982,89.3764855 L104.717493,88.6801517 L103.902609,88.4753477 C103.6174,87.2874842 104.10633,86.9597977 104.432284,87.4922882 L104.839726,87.5742099 L104.717493,86.5501896 L105.206424,86.4273072 L105.084191,84.9936789 L104.676749,84.8707965 L104.676749,84.3792668 L106.388006,84.4611884 C106.102796,83.478129 106.306517,83.0685209 106.306517,83.0685209 L106.306517,83.0685209 Z M155.321797,86.2225032 L154.955099,86.4273072 C154.995843,86.5092288 154.995843,86.6321113 155.036588,86.7140329 C155.036588,86.8369153 155.077332,86.9597977 155.15882,87.0417193 C155.240309,87.0826802 155.321797,87.123641 155.44403,87.0826802 L155.362541,86.6730721 C155.403285,86.6730721 155.44403,86.7140329 155.44403,86.7549937 C155.44403,86.7549937 155.44403,86.7140329 155.44403,86.6730721 C155.403285,86.5501896 155.403285,86.3863464 155.321797,86.2225032 L155.321797,86.2225032 Z M154.914355,87.0007585 L154.506913,87.0826802 C154.629146,87.4922882 154.751378,87.9018963 154.751378,87.9428571 L155.118076,87.7790139 C155.15882,87.7790139 154.995843,87.3694058 154.914355,87.0007585 L154.914355,87.0007585 Z M123.133874,87.4103666 L123.133874,88.7211125 L123.622805,88.7211125 L123.622805,87.4103666 L123.133874,87.4103666 Z M108.506704,87.7380531 L107.97703,88.0657396 L108.180751,88.4343869 L108.710425,88.1067004 L108.506704,87.7380531 Z M152.632679,88.6801517 C152.591935,89.0078382 152.673424,89.4174463 152.999377,89.4584071 L153.080866,89.048799 L153.080866,89.048799 C153.040122,89.0078382 152.999377,88.8439949 153.040122,88.6801517 L152.632679,88.6801517 L152.632679,88.6801517 Z M98.361397,89.4174463 L98.361397,90.2366625 L98.361397,89.4174463 Z M152.428958,89.4584071 C152.306726,89.4584071 152.143749,89.5812895 151.980772,89.7041719 C151.57333,89.9499368 151.736307,91.0149178 151.980772,90.7281922 C152.225237,90.4824273 152.551191,90.7281922 152.591935,89.9499368 C152.632679,89.5403287 152.551191,89.4584071 152.428958,89.4584071 L152.428958,89.4584071 Z M110.299449,89.9908976 L111.888473,90.8101138 C112.092194,91.0968394 112.988567,91.0149178 112.988567,91.0149178 L113.273776,91.3426043 C113.273776,91.3426043 113.803451,91.2606827 114.170149,91.6702908 C114.496103,92.0798989 116.288848,91.7522124 116.288848,91.7522124 L116.777778,92.1618205 L117.511174,92.4485461 L118.774244,92.489507 L119.548384,93.2677623 C118.326058,93.8412137 115.840661,93.6364096 115.677685,93.4725664 C115.473964,93.2677623 114.047916,92.6533502 114.047916,92.6533502 C114.047916,92.6533502 112.947823,91.7522124 112.744102,92.0389381 C112.540381,92.3256637 111.603264,91.7112516 111.603264,91.9160556 C111.603264,92.1208597 110.706891,91.4245259 110.706891,91.4245259 L109.362333,90.9329962 L110.380938,90.7281922 L110.217961,90.0728192 C110.217961,90.0318584 110.258705,90.0318584 110.299449,89.9908976 L110.299449,89.9908976 Z M100.52084,90.1957016 L100.031909,90.5643489 L100.23563,90.769153 L100.439352,91.0968394 L100.928282,90.3185841 L100.52084,90.1957016 L100.52084,90.1957016 Z M36.7561574,94.0460177 L36.7561574,94.7423515 L37.2858321,94.7423515 L37.2858321,95.6434893 L37.6932742,95.6434893 L37.6117858,94.619469 L37.0821111,94.414665 L37.0821111,94.0869785 L36.7561574,94.0460177 L36.7561574,94.0460177 Z M135.68309,94.414665 L135.642346,95.0290771 L136.294253,95.0700379 L136.334997,94.4965866 L135.68309,94.414665 L135.68309,94.414665 Z M135.112671,95.8482933 L134.990438,96.2579014 C135.031182,96.2579014 135.071927,96.2988622 135.112671,96.339823 L135.194159,96.7084703 C135.153415,96.7494311 135.112671,96.7903919 135.112671,96.8313527 L135.39788,97.1180784 C135.601601,96.8723135 135.68309,96.6265487 135.642346,96.4217446 C135.560857,96.0121365 135.194159,95.8892541 135.112671,95.8482933 L135.112671,95.8482933 Z M123.296851,97.0771176 L126.271178,100.067257 C126.148946,100.558786 125.660015,100.845512 125.41555,100.681669 C125.13034,100.476865 125.741503,101.009355 125.90448,101.296081 C126.026713,101.582807 126.434155,101.582807 126.597132,101.296081 C126.67862,101.091277 126.67862,100.76359 126.719364,100.476865 L128.104667,101.869532 C127.941691,102.23818 127.73797,102.565866 127.819458,102.811631 L127.819458,102.811631 L128.430621,103.098357 L128.512109,104.28622 C128.960296,104.736789 129.978901,104.736789 130.793785,104.613906 L131.078994,104.900632 C128.593598,107.358281 125.822992,109.529204 122.889409,111.413401 L122.889409,110.758028 C124.111735,109.85689 124.193224,108.259418 123.011642,108.136536 C122.156013,108.013654 122.522711,107.112516 123.337595,106.948673 L123.826526,106.743869 L123.826526,106.088496 L125.374806,104.654867 L125.374806,103.548925 L121.993037,100.72263 C121.300385,100.476865 121.259641,99.6166877 121.504106,98.7974716 C122.074525,98.2240202 122.685688,97.6915297 123.296851,97.0771176 L123.296851,97.0771176 Z M40.1379265,97.2409608 L40.626857,98.4697851 L40.9120665,99.0841972 L41.4417411,99.8624526 L42.1751368,100.558786 L42.4603463,100.067257 L41.9714158,99.0432364 L41.4824853,98.7155499 L41.1565317,97.7324905 L40.1379265,97.2409608 L40.1379265,97.2409608 Z M26.8960596,98.2240202 C31.0112244,106.498104 29.2184793,117.147914 34.5559703,124.930468 C36.2264828,127.388116 38.5489025,129.722882 40.7083454,131.64804 L40.626857,131.729962 C38.6711351,130.828824 36.9191343,129.436157 35.1263892,127.961568 C25.795966,120.138053 11.7392149,119.154994 6.15725868,106.416182 C7.66479431,115.755247 15.0394956,124.02933 23.02536,129.272314 C30.6037823,134.269532 40.3009034,133.696081 48.6942098,136.481416 C40.9120665,130.173451 39.7304845,120.711504 36.267227,112.437421 C34.107784,107.399241 30.6037823,102.77067 26.8960596,98.2240202 L26.8960596,98.2240202 Z M163.10394,98.2240202 C159.355473,102.729709 155.851472,107.358281 153.692029,112.519343 C150.228771,120.793426 149.047189,130.255373 141.265046,136.563338 C149.658352,133.778003 159.396218,134.310493 166.933896,129.354235 C174.879016,124.111252 182.253717,115.837168 183.801997,106.498104 C178.220041,119.236915 164.16329,120.219975 154.832867,128.043489 C153.040122,129.518078 151.288121,130.910746 149.332399,131.811884 L149.25091,131.729962 C151.410353,129.763843 153.732773,127.429077 155.403285,125.012389 C160.740776,117.147914 158.988776,106.498104 163.10394,98.2240202 L163.10394,98.2240202 Z M56.843051,101.214159 C57.4542141,101.214159 58.228354,101.910493 58.3505866,102.197219 C58.3913309,102.361062 58.5950519,102.565866 58.7987729,102.729709 L57.7801678,103.753729 C57.1690047,103.098357 56.5578416,102.442984 55.9466785,101.74665 L56.2318879,101.74665 C56.3541206,101.378003 56.5985858,101.214159 56.843051,101.214159 L56.843051,101.214159 Z M96.976094,105.064475 C97.3835361,105.105436 97.8317223,105.187358 98.1169318,105.392162 C98.8503275,105.924652 99.8689326,105.596966 99.8689326,105.596966 L100.602328,106.498104 C99.0133043,106.743869 97.4242803,106.866751 95.794512,106.907712 L95.794512,105.269279 C96.0389773,105.105436 96.4871635,105.023515 96.976094,105.064475 Z M132.179088,106.047535 L140.735371,114.649305 C135.968299,119.318837 130.508576,123.251075 124.478433,126.323135 C115.840661,130.705942 106.102796,133.286473 95.794512,133.409355 L95.794512,121.243995 C100.724561,121.162073 105.573121,120.424779 110.177217,119.032111 L111.358799,119.400759 L111.684752,120.5067 L112.214427,120.424779 L112.621869,120.097092 L114.251637,120.015171 L115.066521,119.236915 L115.962894,119.114033 L122.359734,113.666245 C125.863736,111.495322 129.164017,108.955752 132.179088,106.047535 L132.179088,106.047535 Z M101.417212,108.054614 L101.539445,108.382301 L102.680283,108.709987 L103.495167,108.914791 L103.780376,110.102655 L104.391539,110.184576 L104.595261,110.962832 C105.328656,111.495322 104.391539,112.683186 104.391539,112.683186 L104.391539,114.198736 L104.921214,114.485461 L104.839726,115.058913 L105.736098,115.960051 L106.754703,116.041972 L108.425216,117.844248 C104.391539,118.95019 100.154142,119.564602 95.7537678,119.646523 L95.7537678,108.546144 C97.7094897,108.505183 99.5837232,108.34134 101.417212,108.054614 L101.417212,108.054614 Z M85.0380416,109.160556 L84.6305996,109.488243 L84.4268785,109.652086 L84.6305996,109.815929 L85.11953,110.143616 L85.3639953,109.815929 L85.11953,109.611125 L85.3232511,109.447282 L85.0380416,109.160556 L85.0380416,109.160556 Z M89.8458579,114.116814 L89.6828811,114.485461 L90.0903232,114.690265 L89.9680906,114.813148 L90.2533,115.099874 L90.5792536,114.772187 L90.7829747,114.567383 L90.5385094,114.444501 L89.8458579,114.116814 L89.8458579,114.116814 Z M55.5799806,117.598483 L56.1096553,118.417699 L56.1911437,119.032111 L56.8837952,119.236915 L57.1690047,119.646523 L57.6579351,119.359798 L57.3319815,118.45866 L56.435609,117.680405 L55.5799806,117.598483 L55.5799806,117.598483 Z M40.3009034,118.376738 C45.3939291,125.258154 46.8199763,135.252592 56.1096553,138.73426 C57.7394236,139.348673 59.6544012,139.471555 61.0397042,140.372693 C59.2469592,140.659418 57.6986794,140.085967 56.0281669,139.71732 C44.0901145,137.21871 29.4629445,140.495575 20.4992192,130.255373 C23.8809883,136.972946 30.8889918,142.25689 37.65253,144.468774 C48.0830467,147.909482 58.9617497,144.059166 68.7403592,141.642478 C70.1664064,141.273831 71.8776631,141.396713 73.1814777,140.905183 C67.721754,139.799241 62.4657515,138.119848 58.228354,134.228571 C52.1574673,128.657901 46.8199763,122.718584 40.3009034,118.376738 L40.3009034,118.376738 Z M149.658352,118.376738 C143.180024,122.718584 137.801788,128.657901 131.730902,134.228571 C127.493504,138.119848 122.237502,139.758281 116.777778,140.905183 C118.081593,141.396713 119.792849,141.273831 121.218897,141.642478 C131.03825,144.100126 141.876209,147.950442 152.306726,144.468774 C159.02952,142.215929 166.037523,136.931985 169.460037,130.255373 C160.496311,140.495575 145.869141,137.21871 133.931089,139.758281 C132.260576,140.126928 130.712297,140.659418 128.919552,140.413654 C130.345599,139.512516 132.219832,139.389633 133.8496,138.775221 C143.139279,135.252592 144.565327,125.258154 149.658352,118.376738 L149.658352,118.376738 Z M85.11953,140.659418 C75.9520837,140.659418 67.721754,145.124147 59.6951454,148.482933 C52.4019326,151.514033 42.7455557,150.940582 36.267227,146.434893 C39.445275,150.449052 43.7234167,152.947661 48.1645351,154.627054 C56.3541206,157.903919 65.929009,155.40531 72.9370124,150.899621 C77.9485498,147.663717 82.2674356,143.076106 88.2568339,143.076106 C89.3161833,143.076106 90.3755326,143.198989 91.434882,143.403793 C83.0415755,146.80354 75.3816648,152.742857 69.4330107,158.47737 C70.5331043,159.747155 71.9591515,160.935019 73.3037103,162 C79.9450159,155.077623 87.482694,147.622756 95.0203721,144.509735 C102.55805,147.581795 110.095728,155.077623 116.737034,162 C118.081593,160.894058 119.50764,159.747155 120.607734,158.47737 C114.659079,152.742857 106.999169,146.80354 98.6058622,143.403793 C99.6652116,143.198989 100.724561,143.076106 101.78391,143.076106 C107.773309,143.076106 112.092194,147.663717 117.103732,150.899621 C124.070991,155.364349 133.645879,157.903919 141.876209,154.627054 C146.276583,152.947661 150.554725,150.449052 153.773517,146.434893 C147.335933,150.899621 137.638812,151.514033 130.345599,148.482933 C122.278246,145.124147 114.088661,140.659418 104.921214,140.659418 C101.580189,140.659418 98.2799086,141.23287 95.0611163,142.215929 C91.7608356,141.191909 88.4605549,140.659418 85.11953,140.659418 L85.11953,140.659418 Z"></path>
                            </g>
                        </g>
                    </g>
                </g>
            </g>
        </g>
    </g>
</svg>